%TF.GenerationSoftware,KiCad,Pcbnew,10.0.6*%
%TF.CreationDate,2026-09-03T10:12:44+08:00*%
%TF.ProjectId,imu_to_dxl,696d755f-746f-45f6-9478-6c2e6b696361,rev?*%
%TF.SameCoordinates,Original*%
%TF.FileFunction,AssemblyDrawing,Top*%
%FSLAX46Y46*%
G04 Gerber Fmt 4.6, Leading zero omitted, Abs format (unit mm)*
G04 Created by KiCad (PCBNEW 10.0.6) date 2026-09-03 10:12:44*
%MOMM*%
%LPD*%
G01*
G04 APERTURE LIST*
%ADD10C,0.150000*%
%ADD11C,0.110000*%
%ADD12C,0.040000*%
%ADD13C,0.080000*%
%ADD14C,0.100000*%
G04 APERTURE END LIST*
D10*
X35642857Y-15407200D02*
X35785714Y-15454819D01*
X35785714Y-15454819D02*
X36023809Y-15454819D01*
X36023809Y-15454819D02*
X36119047Y-15407200D01*
X36119047Y-15407200D02*
X36166666Y-15359580D01*
X36166666Y-15359580D02*
X36214285Y-15264342D01*
X36214285Y-15264342D02*
X36214285Y-15169104D01*
X36214285Y-15169104D02*
X36166666Y-15073866D01*
X36166666Y-15073866D02*
X36119047Y-15026247D01*
X36119047Y-15026247D02*
X36023809Y-14978628D01*
X36023809Y-14978628D02*
X35833333Y-14931009D01*
X35833333Y-14931009D02*
X35738095Y-14883390D01*
X35738095Y-14883390D02*
X35690476Y-14835771D01*
X35690476Y-14835771D02*
X35642857Y-14740533D01*
X35642857Y-14740533D02*
X35642857Y-14645295D01*
X35642857Y-14645295D02*
X35690476Y-14550057D01*
X35690476Y-14550057D02*
X35738095Y-14502438D01*
X35738095Y-14502438D02*
X35833333Y-14454819D01*
X35833333Y-14454819D02*
X36071428Y-14454819D01*
X36071428Y-14454819D02*
X36214285Y-14502438D01*
X36547619Y-14454819D02*
X36785714Y-15454819D01*
X36785714Y-15454819D02*
X36976190Y-14740533D01*
X36976190Y-14740533D02*
X37166666Y-15454819D01*
X37166666Y-15454819D02*
X37404762Y-14454819D01*
X37785714Y-15454819D02*
X37785714Y-14454819D01*
X37785714Y-14454819D02*
X38023809Y-14454819D01*
X38023809Y-14454819D02*
X38166666Y-14502438D01*
X38166666Y-14502438D02*
X38261904Y-14597676D01*
X38261904Y-14597676D02*
X38309523Y-14692914D01*
X38309523Y-14692914D02*
X38357142Y-14883390D01*
X38357142Y-14883390D02*
X38357142Y-15026247D01*
X38357142Y-15026247D02*
X38309523Y-15216723D01*
X38309523Y-15216723D02*
X38261904Y-15311961D01*
X38261904Y-15311961D02*
X38166666Y-15407200D01*
X38166666Y-15407200D02*
X38023809Y-15454819D01*
X38023809Y-15454819D02*
X37785714Y-15454819D01*
X36454819Y-9143333D02*
X37169104Y-9143333D01*
X37169104Y-9143333D02*
X37311961Y-9190952D01*
X37311961Y-9190952D02*
X37407200Y-9286190D01*
X37407200Y-9286190D02*
X37454819Y-9429047D01*
X37454819Y-9429047D02*
X37454819Y-9524285D01*
X36454819Y-8762380D02*
X36454819Y-8143333D01*
X36454819Y-8143333D02*
X36835771Y-8476666D01*
X36835771Y-8476666D02*
X36835771Y-8333809D01*
X36835771Y-8333809D02*
X36883390Y-8238571D01*
X36883390Y-8238571D02*
X36931009Y-8190952D01*
X36931009Y-8190952D02*
X37026247Y-8143333D01*
X37026247Y-8143333D02*
X37264342Y-8143333D01*
X37264342Y-8143333D02*
X37359580Y-8190952D01*
X37359580Y-8190952D02*
X37407200Y-8238571D01*
X37407200Y-8238571D02*
X37454819Y-8333809D01*
X37454819Y-8333809D02*
X37454819Y-8619523D01*
X37454819Y-8619523D02*
X37407200Y-8714761D01*
X37407200Y-8714761D02*
X37359580Y-8762380D01*
X6071428Y-26854819D02*
X6071428Y-25854819D01*
X6071428Y-25854819D02*
X6404761Y-26569104D01*
X6404761Y-26569104D02*
X6738094Y-25854819D01*
X6738094Y-25854819D02*
X6738094Y-26854819D01*
X7785713Y-26759580D02*
X7738094Y-26807200D01*
X7738094Y-26807200D02*
X7595237Y-26854819D01*
X7595237Y-26854819D02*
X7499999Y-26854819D01*
X7499999Y-26854819D02*
X7357142Y-26807200D01*
X7357142Y-26807200D02*
X7261904Y-26711961D01*
X7261904Y-26711961D02*
X7214285Y-26616723D01*
X7214285Y-26616723D02*
X7166666Y-26426247D01*
X7166666Y-26426247D02*
X7166666Y-26283390D01*
X7166666Y-26283390D02*
X7214285Y-26092914D01*
X7214285Y-26092914D02*
X7261904Y-25997676D01*
X7261904Y-25997676D02*
X7357142Y-25902438D01*
X7357142Y-25902438D02*
X7499999Y-25854819D01*
X7499999Y-25854819D02*
X7595237Y-25854819D01*
X7595237Y-25854819D02*
X7738094Y-25902438D01*
X7738094Y-25902438D02*
X7785713Y-25950057D01*
X8214285Y-26854819D02*
X8214285Y-25854819D01*
X8214285Y-25854819D02*
X8595237Y-25854819D01*
X8595237Y-25854819D02*
X8690475Y-25902438D01*
X8690475Y-25902438D02*
X8738094Y-25950057D01*
X8738094Y-25950057D02*
X8785713Y-26045295D01*
X8785713Y-26045295D02*
X8785713Y-26188152D01*
X8785713Y-26188152D02*
X8738094Y-26283390D01*
X8738094Y-26283390D02*
X8690475Y-26331009D01*
X8690475Y-26331009D02*
X8595237Y-26378628D01*
X8595237Y-26378628D02*
X8214285Y-26378628D01*
X9738094Y-26854819D02*
X9166666Y-26854819D01*
X9452380Y-26854819D02*
X9452380Y-25854819D01*
X9452380Y-25854819D02*
X9357142Y-25997676D01*
X9357142Y-25997676D02*
X9261904Y-26092914D01*
X9261904Y-26092914D02*
X9166666Y-26140533D01*
X10071428Y-25854819D02*
X10738094Y-25854819D01*
X10738094Y-25854819D02*
X10309523Y-26854819D01*
X11309523Y-25854819D02*
X11404761Y-25854819D01*
X11404761Y-25854819D02*
X11499999Y-25902438D01*
X11499999Y-25902438D02*
X11547618Y-25950057D01*
X11547618Y-25950057D02*
X11595237Y-26045295D01*
X11595237Y-26045295D02*
X11642856Y-26235771D01*
X11642856Y-26235771D02*
X11642856Y-26473866D01*
X11642856Y-26473866D02*
X11595237Y-26664342D01*
X11595237Y-26664342D02*
X11547618Y-26759580D01*
X11547618Y-26759580D02*
X11499999Y-26807200D01*
X11499999Y-26807200D02*
X11404761Y-26854819D01*
X11404761Y-26854819D02*
X11309523Y-26854819D01*
X11309523Y-26854819D02*
X11214285Y-26807200D01*
X11214285Y-26807200D02*
X11166666Y-26759580D01*
X11166666Y-26759580D02*
X11119047Y-26664342D01*
X11119047Y-26664342D02*
X11071428Y-26473866D01*
X11071428Y-26473866D02*
X11071428Y-26235771D01*
X11071428Y-26235771D02*
X11119047Y-26045295D01*
X11119047Y-26045295D02*
X11166666Y-25950057D01*
X11166666Y-25950057D02*
X11214285Y-25902438D01*
X11214285Y-25902438D02*
X11309523Y-25854819D01*
X11976190Y-25854819D02*
X12595237Y-25854819D01*
X12595237Y-25854819D02*
X12261904Y-26235771D01*
X12261904Y-26235771D02*
X12404761Y-26235771D01*
X12404761Y-26235771D02*
X12499999Y-26283390D01*
X12499999Y-26283390D02*
X12547618Y-26331009D01*
X12547618Y-26331009D02*
X12595237Y-26426247D01*
X12595237Y-26426247D02*
X12595237Y-26664342D01*
X12595237Y-26664342D02*
X12547618Y-26759580D01*
X12547618Y-26759580D02*
X12499999Y-26807200D01*
X12499999Y-26807200D02*
X12404761Y-26854819D01*
X12404761Y-26854819D02*
X12119047Y-26854819D01*
X12119047Y-26854819D02*
X12023809Y-26807200D01*
X12023809Y-26807200D02*
X11976190Y-26759580D01*
X12976190Y-26569104D02*
X13452380Y-26569104D01*
X12880952Y-26854819D02*
X13214285Y-25854819D01*
X13214285Y-25854819D02*
X13547618Y-26854819D01*
X13880952Y-26473866D02*
X14642857Y-26473866D01*
X15023809Y-25854819D02*
X15642856Y-25854819D01*
X15642856Y-25854819D02*
X15309523Y-26235771D01*
X15309523Y-26235771D02*
X15452380Y-26235771D01*
X15452380Y-26235771D02*
X15547618Y-26283390D01*
X15547618Y-26283390D02*
X15595237Y-26331009D01*
X15595237Y-26331009D02*
X15642856Y-26426247D01*
X15642856Y-26426247D02*
X15642856Y-26664342D01*
X15642856Y-26664342D02*
X15595237Y-26759580D01*
X15595237Y-26759580D02*
X15547618Y-26807200D01*
X15547618Y-26807200D02*
X15452380Y-26854819D01*
X15452380Y-26854819D02*
X15166666Y-26854819D01*
X15166666Y-26854819D02*
X15071428Y-26807200D01*
X15071428Y-26807200D02*
X15023809Y-26759580D01*
X15976190Y-25854819D02*
X16595237Y-25854819D01*
X16595237Y-25854819D02*
X16261904Y-26235771D01*
X16261904Y-26235771D02*
X16404761Y-26235771D01*
X16404761Y-26235771D02*
X16499999Y-26283390D01*
X16499999Y-26283390D02*
X16547618Y-26331009D01*
X16547618Y-26331009D02*
X16595237Y-26426247D01*
X16595237Y-26426247D02*
X16595237Y-26664342D01*
X16595237Y-26664342D02*
X16547618Y-26759580D01*
X16547618Y-26759580D02*
X16499999Y-26807200D01*
X16499999Y-26807200D02*
X16404761Y-26854819D01*
X16404761Y-26854819D02*
X16119047Y-26854819D01*
X16119047Y-26854819D02*
X16023809Y-26807200D01*
X16023809Y-26807200D02*
X15976190Y-26759580D01*
X17214285Y-25854819D02*
X17309523Y-25854819D01*
X17309523Y-25854819D02*
X17404761Y-25902438D01*
X17404761Y-25902438D02*
X17452380Y-25950057D01*
X17452380Y-25950057D02*
X17499999Y-26045295D01*
X17499999Y-26045295D02*
X17547618Y-26235771D01*
X17547618Y-26235771D02*
X17547618Y-26473866D01*
X17547618Y-26473866D02*
X17499999Y-26664342D01*
X17499999Y-26664342D02*
X17452380Y-26759580D01*
X17452380Y-26759580D02*
X17404761Y-26807200D01*
X17404761Y-26807200D02*
X17309523Y-26854819D01*
X17309523Y-26854819D02*
X17214285Y-26854819D01*
X17214285Y-26854819D02*
X17119047Y-26807200D01*
X17119047Y-26807200D02*
X17071428Y-26759580D01*
X17071428Y-26759580D02*
X17023809Y-26664342D01*
X17023809Y-26664342D02*
X16976190Y-26473866D01*
X16976190Y-26473866D02*
X16976190Y-26235771D01*
X16976190Y-26235771D02*
X17023809Y-26045295D01*
X17023809Y-26045295D02*
X17071428Y-25950057D01*
X17071428Y-25950057D02*
X17119047Y-25902438D01*
X17119047Y-25902438D02*
X17214285Y-25854819D01*
X17928571Y-25950057D02*
X17976190Y-25902438D01*
X17976190Y-25902438D02*
X18071428Y-25854819D01*
X18071428Y-25854819D02*
X18309523Y-25854819D01*
X18309523Y-25854819D02*
X18404761Y-25902438D01*
X18404761Y-25902438D02*
X18452380Y-25950057D01*
X18452380Y-25950057D02*
X18499999Y-26045295D01*
X18499999Y-26045295D02*
X18499999Y-26140533D01*
X18499999Y-26140533D02*
X18452380Y-26283390D01*
X18452380Y-26283390D02*
X17880952Y-26854819D01*
X17880952Y-26854819D02*
X18499999Y-26854819D01*
X18928571Y-26331009D02*
X19261904Y-26331009D01*
X19404761Y-26854819D02*
X18928571Y-26854819D01*
X18928571Y-26854819D02*
X18928571Y-25854819D01*
X18928571Y-25854819D02*
X19404761Y-25854819D01*
X20547618Y-25807200D02*
X19690476Y-27092914D01*
X20738095Y-25854819D02*
X21309523Y-25854819D01*
X21023809Y-26854819D02*
X21023809Y-25854819D01*
X21500000Y-25854819D02*
X22071428Y-25854819D01*
X21785714Y-26854819D02*
X21785714Y-25854819D01*
D11*
X13607365Y-24548571D02*
X14190222Y-24548571D01*
X14190222Y-24548571D02*
X14258794Y-24514285D01*
X14258794Y-24514285D02*
X14293080Y-24480000D01*
X14293080Y-24480000D02*
X14327365Y-24411428D01*
X14327365Y-24411428D02*
X14327365Y-24274285D01*
X14327365Y-24274285D02*
X14293080Y-24205714D01*
X14293080Y-24205714D02*
X14258794Y-24171428D01*
X14258794Y-24171428D02*
X14190222Y-24137142D01*
X14190222Y-24137142D02*
X13607365Y-24137142D01*
X14327365Y-23417142D02*
X14327365Y-23828571D01*
X14327365Y-23622856D02*
X13607365Y-23622856D01*
X13607365Y-23622856D02*
X13710222Y-23691428D01*
X13710222Y-23691428D02*
X13778794Y-23759999D01*
X13778794Y-23759999D02*
X13813080Y-23828571D01*
D10*
X17452380Y-13614819D02*
X16880952Y-13614819D01*
X17166666Y-13614819D02*
X17166666Y-12614819D01*
X17166666Y-12614819D02*
X17071428Y-12757676D01*
X17071428Y-12757676D02*
X16976190Y-12852914D01*
X16976190Y-12852914D02*
X16880952Y-12900533D01*
X18071428Y-12614819D02*
X18166666Y-12614819D01*
X18166666Y-12614819D02*
X18261904Y-12662438D01*
X18261904Y-12662438D02*
X18309523Y-12710057D01*
X18309523Y-12710057D02*
X18357142Y-12805295D01*
X18357142Y-12805295D02*
X18404761Y-12995771D01*
X18404761Y-12995771D02*
X18404761Y-13233866D01*
X18404761Y-13233866D02*
X18357142Y-13424342D01*
X18357142Y-13424342D02*
X18309523Y-13519580D01*
X18309523Y-13519580D02*
X18261904Y-13567200D01*
X18261904Y-13567200D02*
X18166666Y-13614819D01*
X18166666Y-13614819D02*
X18071428Y-13614819D01*
X18071428Y-13614819D02*
X17976190Y-13567200D01*
X17976190Y-13567200D02*
X17928571Y-13519580D01*
X17928571Y-13519580D02*
X17880952Y-13424342D01*
X17880952Y-13424342D02*
X17833333Y-13233866D01*
X17833333Y-13233866D02*
X17833333Y-12995771D01*
X17833333Y-12995771D02*
X17880952Y-12805295D01*
X17880952Y-12805295D02*
X17928571Y-12710057D01*
X17928571Y-12710057D02*
X17976190Y-12662438D01*
X17976190Y-12662438D02*
X18071428Y-12614819D01*
X19023809Y-12614819D02*
X19119047Y-12614819D01*
X19119047Y-12614819D02*
X19214285Y-12662438D01*
X19214285Y-12662438D02*
X19261904Y-12710057D01*
X19261904Y-12710057D02*
X19309523Y-12805295D01*
X19309523Y-12805295D02*
X19357142Y-12995771D01*
X19357142Y-12995771D02*
X19357142Y-13233866D01*
X19357142Y-13233866D02*
X19309523Y-13424342D01*
X19309523Y-13424342D02*
X19261904Y-13519580D01*
X19261904Y-13519580D02*
X19214285Y-13567200D01*
X19214285Y-13567200D02*
X19119047Y-13614819D01*
X19119047Y-13614819D02*
X19023809Y-13614819D01*
X19023809Y-13614819D02*
X18928571Y-13567200D01*
X18928571Y-13567200D02*
X18880952Y-13519580D01*
X18880952Y-13519580D02*
X18833333Y-13424342D01*
X18833333Y-13424342D02*
X18785714Y-13233866D01*
X18785714Y-13233866D02*
X18785714Y-12995771D01*
X18785714Y-12995771D02*
X18833333Y-12805295D01*
X18833333Y-12805295D02*
X18880952Y-12710057D01*
X18880952Y-12710057D02*
X18928571Y-12662438D01*
X18928571Y-12662438D02*
X19023809Y-12614819D01*
X19785714Y-12948152D02*
X19785714Y-13614819D01*
X19785714Y-13043390D02*
X19833333Y-12995771D01*
X19833333Y-12995771D02*
X19928571Y-12948152D01*
X19928571Y-12948152D02*
X20071428Y-12948152D01*
X20071428Y-12948152D02*
X20166666Y-12995771D01*
X20166666Y-12995771D02*
X20214285Y-13091009D01*
X20214285Y-13091009D02*
X20214285Y-13614819D01*
X21023809Y-13091009D02*
X20690476Y-13091009D01*
X20690476Y-13614819D02*
X20690476Y-12614819D01*
X20690476Y-12614819D02*
X21166666Y-12614819D01*
D12*
X18958333Y-12089765D02*
X18946429Y-12101670D01*
X18946429Y-12101670D02*
X18910714Y-12113574D01*
X18910714Y-12113574D02*
X18886905Y-12113574D01*
X18886905Y-12113574D02*
X18851191Y-12101670D01*
X18851191Y-12101670D02*
X18827381Y-12077860D01*
X18827381Y-12077860D02*
X18815476Y-12054050D01*
X18815476Y-12054050D02*
X18803572Y-12006431D01*
X18803572Y-12006431D02*
X18803572Y-11970717D01*
X18803572Y-11970717D02*
X18815476Y-11923098D01*
X18815476Y-11923098D02*
X18827381Y-11899289D01*
X18827381Y-11899289D02*
X18851191Y-11875479D01*
X18851191Y-11875479D02*
X18886905Y-11863574D01*
X18886905Y-11863574D02*
X18910714Y-11863574D01*
X18910714Y-11863574D02*
X18946429Y-11875479D01*
X18946429Y-11875479D02*
X18958333Y-11887384D01*
X19172619Y-11946908D02*
X19172619Y-12113574D01*
X19113095Y-11851670D02*
X19053572Y-12030241D01*
X19053572Y-12030241D02*
X19208333Y-12030241D01*
D10*
X11710057Y-27642856D02*
X11662438Y-27595237D01*
X11662438Y-27595237D02*
X11614819Y-27499999D01*
X11614819Y-27499999D02*
X11614819Y-27261904D01*
X11614819Y-27261904D02*
X11662438Y-27166666D01*
X11662438Y-27166666D02*
X11710057Y-27119047D01*
X11710057Y-27119047D02*
X11805295Y-27071428D01*
X11805295Y-27071428D02*
X11900533Y-27071428D01*
X11900533Y-27071428D02*
X12043390Y-27119047D01*
X12043390Y-27119047D02*
X12614819Y-27690475D01*
X12614819Y-27690475D02*
X12614819Y-27071428D01*
X12519580Y-26642856D02*
X12567200Y-26595237D01*
X12567200Y-26595237D02*
X12614819Y-26642856D01*
X12614819Y-26642856D02*
X12567200Y-26690475D01*
X12567200Y-26690475D02*
X12519580Y-26642856D01*
X12519580Y-26642856D02*
X12614819Y-26642856D01*
X11710057Y-26214285D02*
X11662438Y-26166666D01*
X11662438Y-26166666D02*
X11614819Y-26071428D01*
X11614819Y-26071428D02*
X11614819Y-25833333D01*
X11614819Y-25833333D02*
X11662438Y-25738095D01*
X11662438Y-25738095D02*
X11710057Y-25690476D01*
X11710057Y-25690476D02*
X11805295Y-25642857D01*
X11805295Y-25642857D02*
X11900533Y-25642857D01*
X11900533Y-25642857D02*
X12043390Y-25690476D01*
X12043390Y-25690476D02*
X12614819Y-26261904D01*
X12614819Y-26261904D02*
X12614819Y-25642857D01*
X11948152Y-24785714D02*
X12614819Y-24785714D01*
X11948152Y-25214285D02*
X12471961Y-25214285D01*
X12471961Y-25214285D02*
X12567200Y-25166666D01*
X12567200Y-25166666D02*
X12614819Y-25071428D01*
X12614819Y-25071428D02*
X12614819Y-24928571D01*
X12614819Y-24928571D02*
X12567200Y-24833333D01*
X12567200Y-24833333D02*
X12519580Y-24785714D01*
X12091009Y-23976190D02*
X12091009Y-24309523D01*
X12614819Y-24309523D02*
X11614819Y-24309523D01*
X11614819Y-24309523D02*
X11614819Y-23833333D01*
X12614819Y-22166666D02*
X12614819Y-22738094D01*
X12614819Y-22452380D02*
X11614819Y-22452380D01*
X11614819Y-22452380D02*
X11757676Y-22547618D01*
X11757676Y-22547618D02*
X11852914Y-22642856D01*
X11852914Y-22642856D02*
X11900533Y-22738094D01*
X11614819Y-21547618D02*
X11614819Y-21452380D01*
X11614819Y-21452380D02*
X11662438Y-21357142D01*
X11662438Y-21357142D02*
X11710057Y-21309523D01*
X11710057Y-21309523D02*
X11805295Y-21261904D01*
X11805295Y-21261904D02*
X11995771Y-21214285D01*
X11995771Y-21214285D02*
X12233866Y-21214285D01*
X12233866Y-21214285D02*
X12424342Y-21261904D01*
X12424342Y-21261904D02*
X12519580Y-21309523D01*
X12519580Y-21309523D02*
X12567200Y-21357142D01*
X12567200Y-21357142D02*
X12614819Y-21452380D01*
X12614819Y-21452380D02*
X12614819Y-21547618D01*
X12614819Y-21547618D02*
X12567200Y-21642856D01*
X12567200Y-21642856D02*
X12519580Y-21690475D01*
X12519580Y-21690475D02*
X12424342Y-21738094D01*
X12424342Y-21738094D02*
X12233866Y-21785713D01*
X12233866Y-21785713D02*
X11995771Y-21785713D01*
X11995771Y-21785713D02*
X11805295Y-21738094D01*
X11805295Y-21738094D02*
X11710057Y-21690475D01*
X11710057Y-21690475D02*
X11662438Y-21642856D01*
X11662438Y-21642856D02*
X11614819Y-21547618D01*
X11614819Y-20928570D02*
X12614819Y-20595237D01*
X12614819Y-20595237D02*
X11614819Y-20261904D01*
D12*
X11089765Y-24041666D02*
X11101670Y-24053570D01*
X11101670Y-24053570D02*
X11113574Y-24089285D01*
X11113574Y-24089285D02*
X11113574Y-24113094D01*
X11113574Y-24113094D02*
X11101670Y-24148808D01*
X11101670Y-24148808D02*
X11077860Y-24172618D01*
X11077860Y-24172618D02*
X11054050Y-24184523D01*
X11054050Y-24184523D02*
X11006431Y-24196427D01*
X11006431Y-24196427D02*
X10970717Y-24196427D01*
X10970717Y-24196427D02*
X10923098Y-24184523D01*
X10923098Y-24184523D02*
X10899289Y-24172618D01*
X10899289Y-24172618D02*
X10875479Y-24148808D01*
X10875479Y-24148808D02*
X10863574Y-24113094D01*
X10863574Y-24113094D02*
X10863574Y-24089285D01*
X10863574Y-24089285D02*
X10875479Y-24053570D01*
X10875479Y-24053570D02*
X10887384Y-24041666D01*
X10863574Y-23958332D02*
X10863574Y-23803570D01*
X10863574Y-23803570D02*
X10958812Y-23886904D01*
X10958812Y-23886904D02*
X10958812Y-23851189D01*
X10958812Y-23851189D02*
X10970717Y-23827380D01*
X10970717Y-23827380D02*
X10982622Y-23815475D01*
X10982622Y-23815475D02*
X11006431Y-23803570D01*
X11006431Y-23803570D02*
X11065955Y-23803570D01*
X11065955Y-23803570D02*
X11089765Y-23815475D01*
X11089765Y-23815475D02*
X11101670Y-23827380D01*
X11101670Y-23827380D02*
X11113574Y-23851189D01*
X11113574Y-23851189D02*
X11113574Y-23922618D01*
X11113574Y-23922618D02*
X11101670Y-23946427D01*
X11101670Y-23946427D02*
X11089765Y-23958332D01*
D10*
X21404761Y-23624819D02*
X20833333Y-23624819D01*
X21119047Y-23624819D02*
X21119047Y-22624819D01*
X21119047Y-22624819D02*
X21023809Y-22767676D01*
X21023809Y-22767676D02*
X20928571Y-22862914D01*
X20928571Y-22862914D02*
X20833333Y-22910533D01*
X22023809Y-22624819D02*
X22119047Y-22624819D01*
X22119047Y-22624819D02*
X22214285Y-22672438D01*
X22214285Y-22672438D02*
X22261904Y-22720057D01*
X22261904Y-22720057D02*
X22309523Y-22815295D01*
X22309523Y-22815295D02*
X22357142Y-23005771D01*
X22357142Y-23005771D02*
X22357142Y-23243866D01*
X22357142Y-23243866D02*
X22309523Y-23434342D01*
X22309523Y-23434342D02*
X22261904Y-23529580D01*
X22261904Y-23529580D02*
X22214285Y-23577200D01*
X22214285Y-23577200D02*
X22119047Y-23624819D01*
X22119047Y-23624819D02*
X22023809Y-23624819D01*
X22023809Y-23624819D02*
X21928571Y-23577200D01*
X21928571Y-23577200D02*
X21880952Y-23529580D01*
X21880952Y-23529580D02*
X21833333Y-23434342D01*
X21833333Y-23434342D02*
X21785714Y-23243866D01*
X21785714Y-23243866D02*
X21785714Y-23005771D01*
X21785714Y-23005771D02*
X21833333Y-22815295D01*
X21833333Y-22815295D02*
X21880952Y-22720057D01*
X21880952Y-22720057D02*
X21928571Y-22672438D01*
X21928571Y-22672438D02*
X22023809Y-22624819D01*
X22785714Y-23624819D02*
X22785714Y-22624819D01*
X22880952Y-23243866D02*
X23166666Y-23624819D01*
X23166666Y-22958152D02*
X22785714Y-23339104D01*
D12*
X21956667Y-22118200D02*
X21870000Y-21994391D01*
X21808095Y-22118200D02*
X21808095Y-21858200D01*
X21808095Y-21858200D02*
X21907143Y-21858200D01*
X21907143Y-21858200D02*
X21931905Y-21870581D01*
X21931905Y-21870581D02*
X21944286Y-21882962D01*
X21944286Y-21882962D02*
X21956667Y-21907724D01*
X21956667Y-21907724D02*
X21956667Y-21944867D01*
X21956667Y-21944867D02*
X21944286Y-21969629D01*
X21944286Y-21969629D02*
X21931905Y-21982010D01*
X21931905Y-21982010D02*
X21907143Y-21994391D01*
X21907143Y-21994391D02*
X21808095Y-21994391D01*
X22204286Y-22118200D02*
X22055714Y-22118200D01*
X22130000Y-22118200D02*
X22130000Y-21858200D01*
X22130000Y-21858200D02*
X22105238Y-21895343D01*
X22105238Y-21895343D02*
X22080476Y-21920105D01*
X22080476Y-21920105D02*
X22055714Y-21932486D01*
D10*
X1714286Y-14904819D02*
X1714286Y-13904819D01*
X1714286Y-13904819D02*
X1952381Y-13904819D01*
X1952381Y-13904819D02*
X2095238Y-13952438D01*
X2095238Y-13952438D02*
X2190476Y-14047676D01*
X2190476Y-14047676D02*
X2238095Y-14142914D01*
X2238095Y-14142914D02*
X2285714Y-14333390D01*
X2285714Y-14333390D02*
X2285714Y-14476247D01*
X2285714Y-14476247D02*
X2238095Y-14666723D01*
X2238095Y-14666723D02*
X2190476Y-14761961D01*
X2190476Y-14761961D02*
X2095238Y-14857200D01*
X2095238Y-14857200D02*
X1952381Y-14904819D01*
X1952381Y-14904819D02*
X1714286Y-14904819D01*
X2619048Y-13904819D02*
X3285714Y-14904819D01*
X3285714Y-13904819D02*
X2619048Y-14904819D01*
X4142857Y-14904819D02*
X3666667Y-14904819D01*
X3666667Y-14904819D02*
X3666667Y-13904819D01*
X4238096Y-15000057D02*
X5000000Y-15000057D01*
X5238096Y-14904819D02*
X5238096Y-13904819D01*
X5714286Y-14904819D02*
X5714286Y-13904819D01*
X5714286Y-13904819D02*
X6285714Y-14904819D01*
X6285714Y-14904819D02*
X6285714Y-13904819D01*
X3666666Y-8954819D02*
X3666666Y-9669104D01*
X3666666Y-9669104D02*
X3619047Y-9811961D01*
X3619047Y-9811961D02*
X3523809Y-9907200D01*
X3523809Y-9907200D02*
X3380952Y-9954819D01*
X3380952Y-9954819D02*
X3285714Y-9954819D01*
X4666666Y-9954819D02*
X4095238Y-9954819D01*
X4380952Y-9954819D02*
X4380952Y-8954819D01*
X4380952Y-8954819D02*
X4285714Y-9097676D01*
X4285714Y-9097676D02*
X4190476Y-9192914D01*
X4190476Y-9192914D02*
X4095238Y-9240533D01*
X20452380Y-13614819D02*
X19880952Y-13614819D01*
X20166666Y-13614819D02*
X20166666Y-12614819D01*
X20166666Y-12614819D02*
X20071428Y-12757676D01*
X20071428Y-12757676D02*
X19976190Y-12852914D01*
X19976190Y-12852914D02*
X19880952Y-12900533D01*
X21071428Y-12614819D02*
X21166666Y-12614819D01*
X21166666Y-12614819D02*
X21261904Y-12662438D01*
X21261904Y-12662438D02*
X21309523Y-12710057D01*
X21309523Y-12710057D02*
X21357142Y-12805295D01*
X21357142Y-12805295D02*
X21404761Y-12995771D01*
X21404761Y-12995771D02*
X21404761Y-13233866D01*
X21404761Y-13233866D02*
X21357142Y-13424342D01*
X21357142Y-13424342D02*
X21309523Y-13519580D01*
X21309523Y-13519580D02*
X21261904Y-13567200D01*
X21261904Y-13567200D02*
X21166666Y-13614819D01*
X21166666Y-13614819D02*
X21071428Y-13614819D01*
X21071428Y-13614819D02*
X20976190Y-13567200D01*
X20976190Y-13567200D02*
X20928571Y-13519580D01*
X20928571Y-13519580D02*
X20880952Y-13424342D01*
X20880952Y-13424342D02*
X20833333Y-13233866D01*
X20833333Y-13233866D02*
X20833333Y-12995771D01*
X20833333Y-12995771D02*
X20880952Y-12805295D01*
X20880952Y-12805295D02*
X20928571Y-12710057D01*
X20928571Y-12710057D02*
X20976190Y-12662438D01*
X20976190Y-12662438D02*
X21071428Y-12614819D01*
X22023809Y-12614819D02*
X22119047Y-12614819D01*
X22119047Y-12614819D02*
X22214285Y-12662438D01*
X22214285Y-12662438D02*
X22261904Y-12710057D01*
X22261904Y-12710057D02*
X22309523Y-12805295D01*
X22309523Y-12805295D02*
X22357142Y-12995771D01*
X22357142Y-12995771D02*
X22357142Y-13233866D01*
X22357142Y-13233866D02*
X22309523Y-13424342D01*
X22309523Y-13424342D02*
X22261904Y-13519580D01*
X22261904Y-13519580D02*
X22214285Y-13567200D01*
X22214285Y-13567200D02*
X22119047Y-13614819D01*
X22119047Y-13614819D02*
X22023809Y-13614819D01*
X22023809Y-13614819D02*
X21928571Y-13567200D01*
X21928571Y-13567200D02*
X21880952Y-13519580D01*
X21880952Y-13519580D02*
X21833333Y-13424342D01*
X21833333Y-13424342D02*
X21785714Y-13233866D01*
X21785714Y-13233866D02*
X21785714Y-12995771D01*
X21785714Y-12995771D02*
X21833333Y-12805295D01*
X21833333Y-12805295D02*
X21880952Y-12710057D01*
X21880952Y-12710057D02*
X21928571Y-12662438D01*
X21928571Y-12662438D02*
X22023809Y-12614819D01*
X22785714Y-12948152D02*
X22785714Y-13614819D01*
X22785714Y-13043390D02*
X22833333Y-12995771D01*
X22833333Y-12995771D02*
X22928571Y-12948152D01*
X22928571Y-12948152D02*
X23071428Y-12948152D01*
X23071428Y-12948152D02*
X23166666Y-12995771D01*
X23166666Y-12995771D02*
X23214285Y-13091009D01*
X23214285Y-13091009D02*
X23214285Y-13614819D01*
X24023809Y-13091009D02*
X23690476Y-13091009D01*
X23690476Y-13614819D02*
X23690476Y-12614819D01*
X23690476Y-12614819D02*
X24166666Y-12614819D01*
D12*
X21958333Y-12089765D02*
X21946429Y-12101670D01*
X21946429Y-12101670D02*
X21910714Y-12113574D01*
X21910714Y-12113574D02*
X21886905Y-12113574D01*
X21886905Y-12113574D02*
X21851191Y-12101670D01*
X21851191Y-12101670D02*
X21827381Y-12077860D01*
X21827381Y-12077860D02*
X21815476Y-12054050D01*
X21815476Y-12054050D02*
X21803572Y-12006431D01*
X21803572Y-12006431D02*
X21803572Y-11970717D01*
X21803572Y-11970717D02*
X21815476Y-11923098D01*
X21815476Y-11923098D02*
X21827381Y-11899289D01*
X21827381Y-11899289D02*
X21851191Y-11875479D01*
X21851191Y-11875479D02*
X21886905Y-11863574D01*
X21886905Y-11863574D02*
X21910714Y-11863574D01*
X21910714Y-11863574D02*
X21946429Y-11875479D01*
X21946429Y-11875479D02*
X21958333Y-11887384D01*
X22184524Y-11863574D02*
X22065476Y-11863574D01*
X22065476Y-11863574D02*
X22053572Y-11982622D01*
X22053572Y-11982622D02*
X22065476Y-11970717D01*
X22065476Y-11970717D02*
X22089286Y-11958812D01*
X22089286Y-11958812D02*
X22148810Y-11958812D01*
X22148810Y-11958812D02*
X22172619Y-11970717D01*
X22172619Y-11970717D02*
X22184524Y-11982622D01*
X22184524Y-11982622D02*
X22196429Y-12006431D01*
X22196429Y-12006431D02*
X22196429Y-12065955D01*
X22196429Y-12065955D02*
X22184524Y-12089765D01*
X22184524Y-12089765D02*
X22172619Y-12101670D01*
X22172619Y-12101670D02*
X22148810Y-12113574D01*
X22148810Y-12113574D02*
X22089286Y-12113574D01*
X22089286Y-12113574D02*
X22065476Y-12101670D01*
X22065476Y-12101670D02*
X22053572Y-12089765D01*
D10*
X28952380Y-19654819D02*
X28476190Y-19654819D01*
X28476190Y-19654819D02*
X28476190Y-18654819D01*
X29238095Y-19607200D02*
X29380952Y-19654819D01*
X29380952Y-19654819D02*
X29619047Y-19654819D01*
X29619047Y-19654819D02*
X29714285Y-19607200D01*
X29714285Y-19607200D02*
X29761904Y-19559580D01*
X29761904Y-19559580D02*
X29809523Y-19464342D01*
X29809523Y-19464342D02*
X29809523Y-19369104D01*
X29809523Y-19369104D02*
X29761904Y-19273866D01*
X29761904Y-19273866D02*
X29714285Y-19226247D01*
X29714285Y-19226247D02*
X29619047Y-19178628D01*
X29619047Y-19178628D02*
X29428571Y-19131009D01*
X29428571Y-19131009D02*
X29333333Y-19083390D01*
X29333333Y-19083390D02*
X29285714Y-19035771D01*
X29285714Y-19035771D02*
X29238095Y-18940533D01*
X29238095Y-18940533D02*
X29238095Y-18845295D01*
X29238095Y-18845295D02*
X29285714Y-18750057D01*
X29285714Y-18750057D02*
X29333333Y-18702438D01*
X29333333Y-18702438D02*
X29428571Y-18654819D01*
X29428571Y-18654819D02*
X29666666Y-18654819D01*
X29666666Y-18654819D02*
X29809523Y-18702438D01*
X30238095Y-19654819D02*
X30238095Y-18654819D01*
X30238095Y-18654819D02*
X30571428Y-19369104D01*
X30571428Y-19369104D02*
X30904761Y-18654819D01*
X30904761Y-18654819D02*
X30904761Y-19654819D01*
X31809523Y-18654819D02*
X31619047Y-18654819D01*
X31619047Y-18654819D02*
X31523809Y-18702438D01*
X31523809Y-18702438D02*
X31476190Y-18750057D01*
X31476190Y-18750057D02*
X31380952Y-18892914D01*
X31380952Y-18892914D02*
X31333333Y-19083390D01*
X31333333Y-19083390D02*
X31333333Y-19464342D01*
X31333333Y-19464342D02*
X31380952Y-19559580D01*
X31380952Y-19559580D02*
X31428571Y-19607200D01*
X31428571Y-19607200D02*
X31523809Y-19654819D01*
X31523809Y-19654819D02*
X31714285Y-19654819D01*
X31714285Y-19654819D02*
X31809523Y-19607200D01*
X31809523Y-19607200D02*
X31857142Y-19559580D01*
X31857142Y-19559580D02*
X31904761Y-19464342D01*
X31904761Y-19464342D02*
X31904761Y-19226247D01*
X31904761Y-19226247D02*
X31857142Y-19131009D01*
X31857142Y-19131009D02*
X31809523Y-19083390D01*
X31809523Y-19083390D02*
X31714285Y-19035771D01*
X31714285Y-19035771D02*
X31523809Y-19035771D01*
X31523809Y-19035771D02*
X31428571Y-19083390D01*
X31428571Y-19083390D02*
X31380952Y-19131009D01*
X31380952Y-19131009D02*
X31333333Y-19226247D01*
X32333333Y-19654819D02*
X32333333Y-18654819D01*
X32333333Y-18654819D02*
X32571428Y-18654819D01*
X32571428Y-18654819D02*
X32714285Y-18702438D01*
X32714285Y-18702438D02*
X32809523Y-18797676D01*
X32809523Y-18797676D02*
X32857142Y-18892914D01*
X32857142Y-18892914D02*
X32904761Y-19083390D01*
X32904761Y-19083390D02*
X32904761Y-19226247D01*
X32904761Y-19226247D02*
X32857142Y-19416723D01*
X32857142Y-19416723D02*
X32809523Y-19511961D01*
X32809523Y-19511961D02*
X32714285Y-19607200D01*
X32714285Y-19607200D02*
X32571428Y-19654819D01*
X32571428Y-19654819D02*
X32333333Y-19654819D01*
X33285714Y-19607200D02*
X33428571Y-19654819D01*
X33428571Y-19654819D02*
X33666666Y-19654819D01*
X33666666Y-19654819D02*
X33761904Y-19607200D01*
X33761904Y-19607200D02*
X33809523Y-19559580D01*
X33809523Y-19559580D02*
X33857142Y-19464342D01*
X33857142Y-19464342D02*
X33857142Y-19369104D01*
X33857142Y-19369104D02*
X33809523Y-19273866D01*
X33809523Y-19273866D02*
X33761904Y-19226247D01*
X33761904Y-19226247D02*
X33666666Y-19178628D01*
X33666666Y-19178628D02*
X33476190Y-19131009D01*
X33476190Y-19131009D02*
X33380952Y-19083390D01*
X33380952Y-19083390D02*
X33333333Y-19035771D01*
X33333333Y-19035771D02*
X33285714Y-18940533D01*
X33285714Y-18940533D02*
X33285714Y-18845295D01*
X33285714Y-18845295D02*
X33333333Y-18750057D01*
X33333333Y-18750057D02*
X33380952Y-18702438D01*
X33380952Y-18702438D02*
X33476190Y-18654819D01*
X33476190Y-18654819D02*
X33714285Y-18654819D01*
X33714285Y-18654819D02*
X33857142Y-18702438D01*
X34142857Y-18654819D02*
X34476190Y-19654819D01*
X34476190Y-19654819D02*
X34809523Y-18654819D01*
X35666666Y-19654819D02*
X35095238Y-19654819D01*
X35380952Y-19654819D02*
X35380952Y-18654819D01*
X35380952Y-18654819D02*
X35285714Y-18797676D01*
X35285714Y-18797676D02*
X35190476Y-18892914D01*
X35190476Y-18892914D02*
X35095238Y-18940533D01*
X36523809Y-18654819D02*
X36333333Y-18654819D01*
X36333333Y-18654819D02*
X36238095Y-18702438D01*
X36238095Y-18702438D02*
X36190476Y-18750057D01*
X36190476Y-18750057D02*
X36095238Y-18892914D01*
X36095238Y-18892914D02*
X36047619Y-19083390D01*
X36047619Y-19083390D02*
X36047619Y-19464342D01*
X36047619Y-19464342D02*
X36095238Y-19559580D01*
X36095238Y-19559580D02*
X36142857Y-19607200D01*
X36142857Y-19607200D02*
X36238095Y-19654819D01*
X36238095Y-19654819D02*
X36428571Y-19654819D01*
X36428571Y-19654819D02*
X36523809Y-19607200D01*
X36523809Y-19607200D02*
X36571428Y-19559580D01*
X36571428Y-19559580D02*
X36619047Y-19464342D01*
X36619047Y-19464342D02*
X36619047Y-19226247D01*
X36619047Y-19226247D02*
X36571428Y-19131009D01*
X36571428Y-19131009D02*
X36523809Y-19083390D01*
X36523809Y-19083390D02*
X36428571Y-19035771D01*
X36428571Y-19035771D02*
X36238095Y-19035771D01*
X36238095Y-19035771D02*
X36142857Y-19083390D01*
X36142857Y-19083390D02*
X36095238Y-19131009D01*
X36095238Y-19131009D02*
X36047619Y-19226247D01*
X36952381Y-18654819D02*
X37619047Y-19654819D01*
X37619047Y-18654819D02*
X36952381Y-19654819D01*
D11*
X32428571Y-16591244D02*
X32428571Y-17198387D01*
X32428571Y-17198387D02*
X32464285Y-17269815D01*
X32464285Y-17269815D02*
X32500000Y-17305530D01*
X32500000Y-17305530D02*
X32571428Y-17341244D01*
X32571428Y-17341244D02*
X32714285Y-17341244D01*
X32714285Y-17341244D02*
X32785714Y-17305530D01*
X32785714Y-17305530D02*
X32821428Y-17269815D01*
X32821428Y-17269815D02*
X32857142Y-17198387D01*
X32857142Y-17198387D02*
X32857142Y-16591244D01*
X33142856Y-16591244D02*
X33607142Y-16591244D01*
X33607142Y-16591244D02*
X33357142Y-16876958D01*
X33357142Y-16876958D02*
X33464285Y-16876958D01*
X33464285Y-16876958D02*
X33535714Y-16912672D01*
X33535714Y-16912672D02*
X33571428Y-16948387D01*
X33571428Y-16948387D02*
X33607142Y-17019815D01*
X33607142Y-17019815D02*
X33607142Y-17198387D01*
X33607142Y-17198387D02*
X33571428Y-17269815D01*
X33571428Y-17269815D02*
X33535714Y-17305530D01*
X33535714Y-17305530D02*
X33464285Y-17341244D01*
X33464285Y-17341244D02*
X33249999Y-17341244D01*
X33249999Y-17341244D02*
X33178571Y-17305530D01*
X33178571Y-17305530D02*
X33142856Y-17269815D01*
D10*
X7071428Y-13807200D02*
X7214285Y-13854819D01*
X7214285Y-13854819D02*
X7452380Y-13854819D01*
X7452380Y-13854819D02*
X7547618Y-13807200D01*
X7547618Y-13807200D02*
X7595237Y-13759580D01*
X7595237Y-13759580D02*
X7642856Y-13664342D01*
X7642856Y-13664342D02*
X7642856Y-13569104D01*
X7642856Y-13569104D02*
X7595237Y-13473866D01*
X7595237Y-13473866D02*
X7547618Y-13426247D01*
X7547618Y-13426247D02*
X7452380Y-13378628D01*
X7452380Y-13378628D02*
X7261904Y-13331009D01*
X7261904Y-13331009D02*
X7166666Y-13283390D01*
X7166666Y-13283390D02*
X7119047Y-13235771D01*
X7119047Y-13235771D02*
X7071428Y-13140533D01*
X7071428Y-13140533D02*
X7071428Y-13045295D01*
X7071428Y-13045295D02*
X7119047Y-12950057D01*
X7119047Y-12950057D02*
X7166666Y-12902438D01*
X7166666Y-12902438D02*
X7261904Y-12854819D01*
X7261904Y-12854819D02*
X7499999Y-12854819D01*
X7499999Y-12854819D02*
X7642856Y-12902438D01*
X8071428Y-13854819D02*
X8071428Y-12854819D01*
X8071428Y-12854819D02*
X8642856Y-13854819D01*
X8642856Y-13854819D02*
X8642856Y-12854819D01*
X9023809Y-12854819D02*
X9690475Y-12854819D01*
X9690475Y-12854819D02*
X9261904Y-13854819D01*
X10499999Y-13188152D02*
X10499999Y-13854819D01*
X10261904Y-12807200D02*
X10023809Y-13521485D01*
X10023809Y-13521485D02*
X10642856Y-13521485D01*
X11499999Y-13854819D02*
X11023809Y-13854819D01*
X11023809Y-13854819D02*
X11023809Y-12854819D01*
X11690476Y-12854819D02*
X12023809Y-13854819D01*
X12023809Y-13854819D02*
X12357142Y-12854819D01*
X13261904Y-13759580D02*
X13214285Y-13807200D01*
X13214285Y-13807200D02*
X13071428Y-13854819D01*
X13071428Y-13854819D02*
X12976190Y-13854819D01*
X12976190Y-13854819D02*
X12833333Y-13807200D01*
X12833333Y-13807200D02*
X12738095Y-13711961D01*
X12738095Y-13711961D02*
X12690476Y-13616723D01*
X12690476Y-13616723D02*
X12642857Y-13426247D01*
X12642857Y-13426247D02*
X12642857Y-13283390D01*
X12642857Y-13283390D02*
X12690476Y-13092914D01*
X12690476Y-13092914D02*
X12738095Y-12997676D01*
X12738095Y-12997676D02*
X12833333Y-12902438D01*
X12833333Y-12902438D02*
X12976190Y-12854819D01*
X12976190Y-12854819D02*
X13071428Y-12854819D01*
X13071428Y-12854819D02*
X13214285Y-12902438D01*
X13214285Y-12902438D02*
X13261904Y-12950057D01*
X14214285Y-13854819D02*
X13642857Y-13854819D01*
X13928571Y-13854819D02*
X13928571Y-12854819D01*
X13928571Y-12854819D02*
X13833333Y-12997676D01*
X13833333Y-12997676D02*
X13738095Y-13092914D01*
X13738095Y-13092914D02*
X13642857Y-13140533D01*
X15166666Y-12902438D02*
X15071428Y-12854819D01*
X15071428Y-12854819D02*
X14928571Y-12854819D01*
X14928571Y-12854819D02*
X14785714Y-12902438D01*
X14785714Y-12902438D02*
X14690476Y-12997676D01*
X14690476Y-12997676D02*
X14642857Y-13092914D01*
X14642857Y-13092914D02*
X14595238Y-13283390D01*
X14595238Y-13283390D02*
X14595238Y-13426247D01*
X14595238Y-13426247D02*
X14642857Y-13616723D01*
X14642857Y-13616723D02*
X14690476Y-13711961D01*
X14690476Y-13711961D02*
X14785714Y-13807200D01*
X14785714Y-13807200D02*
X14928571Y-13854819D01*
X14928571Y-13854819D02*
X15023809Y-13854819D01*
X15023809Y-13854819D02*
X15166666Y-13807200D01*
X15166666Y-13807200D02*
X15214285Y-13759580D01*
X15214285Y-13759580D02*
X15214285Y-13426247D01*
X15214285Y-13426247D02*
X15023809Y-13426247D01*
X16166666Y-13854819D02*
X15595238Y-13854819D01*
X15880952Y-13854819D02*
X15880952Y-12854819D01*
X15880952Y-12854819D02*
X15785714Y-12997676D01*
X15785714Y-12997676D02*
X15690476Y-13092914D01*
X15690476Y-13092914D02*
X15595238Y-13140533D01*
X16547619Y-12950057D02*
X16595238Y-12902438D01*
X16595238Y-12902438D02*
X16690476Y-12854819D01*
X16690476Y-12854819D02*
X16928571Y-12854819D01*
X16928571Y-12854819D02*
X17023809Y-12902438D01*
X17023809Y-12902438D02*
X17071428Y-12950057D01*
X17071428Y-12950057D02*
X17119047Y-13045295D01*
X17119047Y-13045295D02*
X17119047Y-13140533D01*
X17119047Y-13140533D02*
X17071428Y-13283390D01*
X17071428Y-13283390D02*
X16500000Y-13854819D01*
X16500000Y-13854819D02*
X17119047Y-13854819D01*
X18023809Y-12854819D02*
X17547619Y-12854819D01*
X17547619Y-12854819D02*
X17500000Y-13331009D01*
X17500000Y-13331009D02*
X17547619Y-13283390D01*
X17547619Y-13283390D02*
X17642857Y-13235771D01*
X17642857Y-13235771D02*
X17880952Y-13235771D01*
X17880952Y-13235771D02*
X17976190Y-13283390D01*
X17976190Y-13283390D02*
X18023809Y-13331009D01*
X18023809Y-13331009D02*
X18071428Y-13426247D01*
X18071428Y-13426247D02*
X18071428Y-13664342D01*
X18071428Y-13664342D02*
X18023809Y-13759580D01*
X18023809Y-13759580D02*
X17976190Y-13807200D01*
X17976190Y-13807200D02*
X17880952Y-13854819D01*
X17880952Y-13854819D02*
X17642857Y-13854819D01*
X17642857Y-13854819D02*
X17547619Y-13807200D01*
X17547619Y-13807200D02*
X17500000Y-13759580D01*
X18500000Y-13854819D02*
X18500000Y-12854819D01*
X18500000Y-12854819D02*
X18738095Y-12854819D01*
X18738095Y-12854819D02*
X18880952Y-12902438D01*
X18880952Y-12902438D02*
X18976190Y-12997676D01*
X18976190Y-12997676D02*
X19023809Y-13092914D01*
X19023809Y-13092914D02*
X19071428Y-13283390D01*
X19071428Y-13283390D02*
X19071428Y-13426247D01*
X19071428Y-13426247D02*
X19023809Y-13616723D01*
X19023809Y-13616723D02*
X18976190Y-13711961D01*
X18976190Y-13711961D02*
X18880952Y-13807200D01*
X18880952Y-13807200D02*
X18738095Y-13854819D01*
X18738095Y-13854819D02*
X18500000Y-13854819D01*
X19833333Y-13331009D02*
X19976190Y-13378628D01*
X19976190Y-13378628D02*
X20023809Y-13426247D01*
X20023809Y-13426247D02*
X20071428Y-13521485D01*
X20071428Y-13521485D02*
X20071428Y-13664342D01*
X20071428Y-13664342D02*
X20023809Y-13759580D01*
X20023809Y-13759580D02*
X19976190Y-13807200D01*
X19976190Y-13807200D02*
X19880952Y-13854819D01*
X19880952Y-13854819D02*
X19500000Y-13854819D01*
X19500000Y-13854819D02*
X19500000Y-12854819D01*
X19500000Y-12854819D02*
X19833333Y-12854819D01*
X19833333Y-12854819D02*
X19928571Y-12902438D01*
X19928571Y-12902438D02*
X19976190Y-12950057D01*
X19976190Y-12950057D02*
X20023809Y-13045295D01*
X20023809Y-13045295D02*
X20023809Y-13140533D01*
X20023809Y-13140533D02*
X19976190Y-13235771D01*
X19976190Y-13235771D02*
X19928571Y-13283390D01*
X19928571Y-13283390D02*
X19833333Y-13331009D01*
X19833333Y-13331009D02*
X19500000Y-13331009D01*
X20357143Y-12854819D02*
X20690476Y-13854819D01*
X20690476Y-13854819D02*
X21023809Y-12854819D01*
D11*
X13607365Y-11548571D02*
X14190222Y-11548571D01*
X14190222Y-11548571D02*
X14258794Y-11514285D01*
X14258794Y-11514285D02*
X14293080Y-11480000D01*
X14293080Y-11480000D02*
X14327365Y-11411428D01*
X14327365Y-11411428D02*
X14327365Y-11274285D01*
X14327365Y-11274285D02*
X14293080Y-11205714D01*
X14293080Y-11205714D02*
X14258794Y-11171428D01*
X14258794Y-11171428D02*
X14190222Y-11137142D01*
X14190222Y-11137142D02*
X13607365Y-11137142D01*
X13847365Y-10485714D02*
X14327365Y-10485714D01*
X13573080Y-10657142D02*
X14087365Y-10828571D01*
X14087365Y-10828571D02*
X14087365Y-10382856D01*
D10*
X23452380Y-13614819D02*
X22880952Y-13614819D01*
X23166666Y-13614819D02*
X23166666Y-12614819D01*
X23166666Y-12614819D02*
X23071428Y-12757676D01*
X23071428Y-12757676D02*
X22976190Y-12852914D01*
X22976190Y-12852914D02*
X22880952Y-12900533D01*
X24071428Y-12614819D02*
X24166666Y-12614819D01*
X24166666Y-12614819D02*
X24261904Y-12662438D01*
X24261904Y-12662438D02*
X24309523Y-12710057D01*
X24309523Y-12710057D02*
X24357142Y-12805295D01*
X24357142Y-12805295D02*
X24404761Y-12995771D01*
X24404761Y-12995771D02*
X24404761Y-13233866D01*
X24404761Y-13233866D02*
X24357142Y-13424342D01*
X24357142Y-13424342D02*
X24309523Y-13519580D01*
X24309523Y-13519580D02*
X24261904Y-13567200D01*
X24261904Y-13567200D02*
X24166666Y-13614819D01*
X24166666Y-13614819D02*
X24071428Y-13614819D01*
X24071428Y-13614819D02*
X23976190Y-13567200D01*
X23976190Y-13567200D02*
X23928571Y-13519580D01*
X23928571Y-13519580D02*
X23880952Y-13424342D01*
X23880952Y-13424342D02*
X23833333Y-13233866D01*
X23833333Y-13233866D02*
X23833333Y-12995771D01*
X23833333Y-12995771D02*
X23880952Y-12805295D01*
X23880952Y-12805295D02*
X23928571Y-12710057D01*
X23928571Y-12710057D02*
X23976190Y-12662438D01*
X23976190Y-12662438D02*
X24071428Y-12614819D01*
X25023809Y-12614819D02*
X25119047Y-12614819D01*
X25119047Y-12614819D02*
X25214285Y-12662438D01*
X25214285Y-12662438D02*
X25261904Y-12710057D01*
X25261904Y-12710057D02*
X25309523Y-12805295D01*
X25309523Y-12805295D02*
X25357142Y-12995771D01*
X25357142Y-12995771D02*
X25357142Y-13233866D01*
X25357142Y-13233866D02*
X25309523Y-13424342D01*
X25309523Y-13424342D02*
X25261904Y-13519580D01*
X25261904Y-13519580D02*
X25214285Y-13567200D01*
X25214285Y-13567200D02*
X25119047Y-13614819D01*
X25119047Y-13614819D02*
X25023809Y-13614819D01*
X25023809Y-13614819D02*
X24928571Y-13567200D01*
X24928571Y-13567200D02*
X24880952Y-13519580D01*
X24880952Y-13519580D02*
X24833333Y-13424342D01*
X24833333Y-13424342D02*
X24785714Y-13233866D01*
X24785714Y-13233866D02*
X24785714Y-12995771D01*
X24785714Y-12995771D02*
X24833333Y-12805295D01*
X24833333Y-12805295D02*
X24880952Y-12710057D01*
X24880952Y-12710057D02*
X24928571Y-12662438D01*
X24928571Y-12662438D02*
X25023809Y-12614819D01*
X25785714Y-12948152D02*
X25785714Y-13614819D01*
X25785714Y-13043390D02*
X25833333Y-12995771D01*
X25833333Y-12995771D02*
X25928571Y-12948152D01*
X25928571Y-12948152D02*
X26071428Y-12948152D01*
X26071428Y-12948152D02*
X26166666Y-12995771D01*
X26166666Y-12995771D02*
X26214285Y-13091009D01*
X26214285Y-13091009D02*
X26214285Y-13614819D01*
X27023809Y-13091009D02*
X26690476Y-13091009D01*
X26690476Y-13614819D02*
X26690476Y-12614819D01*
X26690476Y-12614819D02*
X27166666Y-12614819D01*
D12*
X24958333Y-12089765D02*
X24946429Y-12101670D01*
X24946429Y-12101670D02*
X24910714Y-12113574D01*
X24910714Y-12113574D02*
X24886905Y-12113574D01*
X24886905Y-12113574D02*
X24851191Y-12101670D01*
X24851191Y-12101670D02*
X24827381Y-12077860D01*
X24827381Y-12077860D02*
X24815476Y-12054050D01*
X24815476Y-12054050D02*
X24803572Y-12006431D01*
X24803572Y-12006431D02*
X24803572Y-11970717D01*
X24803572Y-11970717D02*
X24815476Y-11923098D01*
X24815476Y-11923098D02*
X24827381Y-11899289D01*
X24827381Y-11899289D02*
X24851191Y-11875479D01*
X24851191Y-11875479D02*
X24886905Y-11863574D01*
X24886905Y-11863574D02*
X24910714Y-11863574D01*
X24910714Y-11863574D02*
X24946429Y-11875479D01*
X24946429Y-11875479D02*
X24958333Y-11887384D01*
X25172619Y-11863574D02*
X25125000Y-11863574D01*
X25125000Y-11863574D02*
X25101191Y-11875479D01*
X25101191Y-11875479D02*
X25089286Y-11887384D01*
X25089286Y-11887384D02*
X25065476Y-11923098D01*
X25065476Y-11923098D02*
X25053572Y-11970717D01*
X25053572Y-11970717D02*
X25053572Y-12065955D01*
X25053572Y-12065955D02*
X25065476Y-12089765D01*
X25065476Y-12089765D02*
X25077381Y-12101670D01*
X25077381Y-12101670D02*
X25101191Y-12113574D01*
X25101191Y-12113574D02*
X25148810Y-12113574D01*
X25148810Y-12113574D02*
X25172619Y-12101670D01*
X25172619Y-12101670D02*
X25184524Y-12089765D01*
X25184524Y-12089765D02*
X25196429Y-12065955D01*
X25196429Y-12065955D02*
X25196429Y-12006431D01*
X25196429Y-12006431D02*
X25184524Y-11982622D01*
X25184524Y-11982622D02*
X25172619Y-11970717D01*
X25172619Y-11970717D02*
X25148810Y-11958812D01*
X25148810Y-11958812D02*
X25101191Y-11958812D01*
X25101191Y-11958812D02*
X25077381Y-11970717D01*
X25077381Y-11970717D02*
X25065476Y-11982622D01*
X25065476Y-11982622D02*
X25053572Y-12006431D01*
D10*
X9166666Y-22134819D02*
X8595238Y-22134819D01*
X8880952Y-22134819D02*
X8880952Y-21134819D01*
X8880952Y-21134819D02*
X8785714Y-21277676D01*
X8785714Y-21277676D02*
X8690476Y-21372914D01*
X8690476Y-21372914D02*
X8595238Y-21420533D01*
X9785714Y-21134819D02*
X9880952Y-21134819D01*
X9880952Y-21134819D02*
X9976190Y-21182438D01*
X9976190Y-21182438D02*
X10023809Y-21230057D01*
X10023809Y-21230057D02*
X10071428Y-21325295D01*
X10071428Y-21325295D02*
X10119047Y-21515771D01*
X10119047Y-21515771D02*
X10119047Y-21753866D01*
X10119047Y-21753866D02*
X10071428Y-21944342D01*
X10071428Y-21944342D02*
X10023809Y-22039580D01*
X10023809Y-22039580D02*
X9976190Y-22087200D01*
X9976190Y-22087200D02*
X9880952Y-22134819D01*
X9880952Y-22134819D02*
X9785714Y-22134819D01*
X9785714Y-22134819D02*
X9690476Y-22087200D01*
X9690476Y-22087200D02*
X9642857Y-22039580D01*
X9642857Y-22039580D02*
X9595238Y-21944342D01*
X9595238Y-21944342D02*
X9547619Y-21753866D01*
X9547619Y-21753866D02*
X9547619Y-21515771D01*
X9547619Y-21515771D02*
X9595238Y-21325295D01*
X9595238Y-21325295D02*
X9642857Y-21230057D01*
X9642857Y-21230057D02*
X9690476Y-21182438D01*
X9690476Y-21182438D02*
X9785714Y-21134819D01*
X10976190Y-21468152D02*
X10976190Y-22134819D01*
X10547619Y-21468152D02*
X10547619Y-21991961D01*
X10547619Y-21991961D02*
X10595238Y-22087200D01*
X10595238Y-22087200D02*
X10690476Y-22134819D01*
X10690476Y-22134819D02*
X10833333Y-22134819D01*
X10833333Y-22134819D02*
X10928571Y-22087200D01*
X10928571Y-22087200D02*
X10976190Y-22039580D01*
X11785714Y-21611009D02*
X11452381Y-21611009D01*
X11452381Y-22134819D02*
X11452381Y-21134819D01*
X11452381Y-21134819D02*
X11928571Y-21134819D01*
X13595238Y-22134819D02*
X13023810Y-22134819D01*
X13309524Y-22134819D02*
X13309524Y-21134819D01*
X13309524Y-21134819D02*
X13214286Y-21277676D01*
X13214286Y-21277676D02*
X13119048Y-21372914D01*
X13119048Y-21372914D02*
X13023810Y-21420533D01*
X14214286Y-21134819D02*
X14309524Y-21134819D01*
X14309524Y-21134819D02*
X14404762Y-21182438D01*
X14404762Y-21182438D02*
X14452381Y-21230057D01*
X14452381Y-21230057D02*
X14500000Y-21325295D01*
X14500000Y-21325295D02*
X14547619Y-21515771D01*
X14547619Y-21515771D02*
X14547619Y-21753866D01*
X14547619Y-21753866D02*
X14500000Y-21944342D01*
X14500000Y-21944342D02*
X14452381Y-22039580D01*
X14452381Y-22039580D02*
X14404762Y-22087200D01*
X14404762Y-22087200D02*
X14309524Y-22134819D01*
X14309524Y-22134819D02*
X14214286Y-22134819D01*
X14214286Y-22134819D02*
X14119048Y-22087200D01*
X14119048Y-22087200D02*
X14071429Y-22039580D01*
X14071429Y-22039580D02*
X14023810Y-21944342D01*
X14023810Y-21944342D02*
X13976191Y-21753866D01*
X13976191Y-21753866D02*
X13976191Y-21515771D01*
X13976191Y-21515771D02*
X14023810Y-21325295D01*
X14023810Y-21325295D02*
X14071429Y-21230057D01*
X14071429Y-21230057D02*
X14119048Y-21182438D01*
X14119048Y-21182438D02*
X14214286Y-21134819D01*
X14833334Y-21134819D02*
X15166667Y-22134819D01*
X15166667Y-22134819D02*
X15500000Y-21134819D01*
D13*
X11916666Y-20179530D02*
X11892857Y-20203340D01*
X11892857Y-20203340D02*
X11821428Y-20227149D01*
X11821428Y-20227149D02*
X11773809Y-20227149D01*
X11773809Y-20227149D02*
X11702381Y-20203340D01*
X11702381Y-20203340D02*
X11654762Y-20155720D01*
X11654762Y-20155720D02*
X11630952Y-20108101D01*
X11630952Y-20108101D02*
X11607143Y-20012863D01*
X11607143Y-20012863D02*
X11607143Y-19941435D01*
X11607143Y-19941435D02*
X11630952Y-19846197D01*
X11630952Y-19846197D02*
X11654762Y-19798578D01*
X11654762Y-19798578D02*
X11702381Y-19750959D01*
X11702381Y-19750959D02*
X11773809Y-19727149D01*
X11773809Y-19727149D02*
X11821428Y-19727149D01*
X11821428Y-19727149D02*
X11892857Y-19750959D01*
X11892857Y-19750959D02*
X11916666Y-19774768D01*
X12392857Y-20227149D02*
X12107143Y-20227149D01*
X12250000Y-20227149D02*
X12250000Y-19727149D01*
X12250000Y-19727149D02*
X12202381Y-19798578D01*
X12202381Y-19798578D02*
X12154762Y-19846197D01*
X12154762Y-19846197D02*
X12107143Y-19870006D01*
D10*
X1047619Y-29904819D02*
X1047619Y-28904819D01*
X1047619Y-28904819D02*
X1285714Y-28904819D01*
X1285714Y-28904819D02*
X1428571Y-28952438D01*
X1428571Y-28952438D02*
X1523809Y-29047676D01*
X1523809Y-29047676D02*
X1571428Y-29142914D01*
X1571428Y-29142914D02*
X1619047Y-29333390D01*
X1619047Y-29333390D02*
X1619047Y-29476247D01*
X1619047Y-29476247D02*
X1571428Y-29666723D01*
X1571428Y-29666723D02*
X1523809Y-29761961D01*
X1523809Y-29761961D02*
X1428571Y-29857200D01*
X1428571Y-29857200D02*
X1285714Y-29904819D01*
X1285714Y-29904819D02*
X1047619Y-29904819D01*
X1952381Y-28904819D02*
X2619047Y-29904819D01*
X2619047Y-28904819D02*
X1952381Y-29904819D01*
X3476190Y-29904819D02*
X3000000Y-29904819D01*
X3000000Y-29904819D02*
X3000000Y-28904819D01*
X3571429Y-30000057D02*
X4333333Y-30000057D01*
X4761905Y-28904819D02*
X4952381Y-28904819D01*
X4952381Y-28904819D02*
X5047619Y-28952438D01*
X5047619Y-28952438D02*
X5142857Y-29047676D01*
X5142857Y-29047676D02*
X5190476Y-29238152D01*
X5190476Y-29238152D02*
X5190476Y-29571485D01*
X5190476Y-29571485D02*
X5142857Y-29761961D01*
X5142857Y-29761961D02*
X5047619Y-29857200D01*
X5047619Y-29857200D02*
X4952381Y-29904819D01*
X4952381Y-29904819D02*
X4761905Y-29904819D01*
X4761905Y-29904819D02*
X4666667Y-29857200D01*
X4666667Y-29857200D02*
X4571429Y-29761961D01*
X4571429Y-29761961D02*
X4523810Y-29571485D01*
X4523810Y-29571485D02*
X4523810Y-29238152D01*
X4523810Y-29238152D02*
X4571429Y-29047676D01*
X4571429Y-29047676D02*
X4666667Y-28952438D01*
X4666667Y-28952438D02*
X4761905Y-28904819D01*
X5619048Y-28904819D02*
X5619048Y-29714342D01*
X5619048Y-29714342D02*
X5666667Y-29809580D01*
X5666667Y-29809580D02*
X5714286Y-29857200D01*
X5714286Y-29857200D02*
X5809524Y-29904819D01*
X5809524Y-29904819D02*
X6000000Y-29904819D01*
X6000000Y-29904819D02*
X6095238Y-29857200D01*
X6095238Y-29857200D02*
X6142857Y-29809580D01*
X6142857Y-29809580D02*
X6190476Y-29714342D01*
X6190476Y-29714342D02*
X6190476Y-28904819D01*
X6523810Y-28904819D02*
X7095238Y-28904819D01*
X6809524Y-29904819D02*
X6809524Y-28904819D01*
X3666666Y-23954819D02*
X3666666Y-24669104D01*
X3666666Y-24669104D02*
X3619047Y-24811961D01*
X3619047Y-24811961D02*
X3523809Y-24907200D01*
X3523809Y-24907200D02*
X3380952Y-24954819D01*
X3380952Y-24954819D02*
X3285714Y-24954819D01*
X4095238Y-24050057D02*
X4142857Y-24002438D01*
X4142857Y-24002438D02*
X4238095Y-23954819D01*
X4238095Y-23954819D02*
X4476190Y-23954819D01*
X4476190Y-23954819D02*
X4571428Y-24002438D01*
X4571428Y-24002438D02*
X4619047Y-24050057D01*
X4619047Y-24050057D02*
X4666666Y-24145295D01*
X4666666Y-24145295D02*
X4666666Y-24240533D01*
X4666666Y-24240533D02*
X4619047Y-24383390D01*
X4619047Y-24383390D02*
X4047619Y-24954819D01*
X4047619Y-24954819D02*
X4666666Y-24954819D01*
X31452380Y-14614819D02*
X30880952Y-14614819D01*
X31166666Y-14614819D02*
X31166666Y-13614819D01*
X31166666Y-13614819D02*
X31071428Y-13757676D01*
X31071428Y-13757676D02*
X30976190Y-13852914D01*
X30976190Y-13852914D02*
X30880952Y-13900533D01*
X32071428Y-13614819D02*
X32166666Y-13614819D01*
X32166666Y-13614819D02*
X32261904Y-13662438D01*
X32261904Y-13662438D02*
X32309523Y-13710057D01*
X32309523Y-13710057D02*
X32357142Y-13805295D01*
X32357142Y-13805295D02*
X32404761Y-13995771D01*
X32404761Y-13995771D02*
X32404761Y-14233866D01*
X32404761Y-14233866D02*
X32357142Y-14424342D01*
X32357142Y-14424342D02*
X32309523Y-14519580D01*
X32309523Y-14519580D02*
X32261904Y-14567200D01*
X32261904Y-14567200D02*
X32166666Y-14614819D01*
X32166666Y-14614819D02*
X32071428Y-14614819D01*
X32071428Y-14614819D02*
X31976190Y-14567200D01*
X31976190Y-14567200D02*
X31928571Y-14519580D01*
X31928571Y-14519580D02*
X31880952Y-14424342D01*
X31880952Y-14424342D02*
X31833333Y-14233866D01*
X31833333Y-14233866D02*
X31833333Y-13995771D01*
X31833333Y-13995771D02*
X31880952Y-13805295D01*
X31880952Y-13805295D02*
X31928571Y-13710057D01*
X31928571Y-13710057D02*
X31976190Y-13662438D01*
X31976190Y-13662438D02*
X32071428Y-13614819D01*
X33023809Y-13614819D02*
X33119047Y-13614819D01*
X33119047Y-13614819D02*
X33214285Y-13662438D01*
X33214285Y-13662438D02*
X33261904Y-13710057D01*
X33261904Y-13710057D02*
X33309523Y-13805295D01*
X33309523Y-13805295D02*
X33357142Y-13995771D01*
X33357142Y-13995771D02*
X33357142Y-14233866D01*
X33357142Y-14233866D02*
X33309523Y-14424342D01*
X33309523Y-14424342D02*
X33261904Y-14519580D01*
X33261904Y-14519580D02*
X33214285Y-14567200D01*
X33214285Y-14567200D02*
X33119047Y-14614819D01*
X33119047Y-14614819D02*
X33023809Y-14614819D01*
X33023809Y-14614819D02*
X32928571Y-14567200D01*
X32928571Y-14567200D02*
X32880952Y-14519580D01*
X32880952Y-14519580D02*
X32833333Y-14424342D01*
X32833333Y-14424342D02*
X32785714Y-14233866D01*
X32785714Y-14233866D02*
X32785714Y-13995771D01*
X32785714Y-13995771D02*
X32833333Y-13805295D01*
X32833333Y-13805295D02*
X32880952Y-13710057D01*
X32880952Y-13710057D02*
X32928571Y-13662438D01*
X32928571Y-13662438D02*
X33023809Y-13614819D01*
X33785714Y-13948152D02*
X33785714Y-14614819D01*
X33785714Y-14043390D02*
X33833333Y-13995771D01*
X33833333Y-13995771D02*
X33928571Y-13948152D01*
X33928571Y-13948152D02*
X34071428Y-13948152D01*
X34071428Y-13948152D02*
X34166666Y-13995771D01*
X34166666Y-13995771D02*
X34214285Y-14091009D01*
X34214285Y-14091009D02*
X34214285Y-14614819D01*
X35023809Y-14091009D02*
X34690476Y-14091009D01*
X34690476Y-14614819D02*
X34690476Y-13614819D01*
X34690476Y-13614819D02*
X35166666Y-13614819D01*
D12*
X32958333Y-13089765D02*
X32946429Y-13101670D01*
X32946429Y-13101670D02*
X32910714Y-13113574D01*
X32910714Y-13113574D02*
X32886905Y-13113574D01*
X32886905Y-13113574D02*
X32851191Y-13101670D01*
X32851191Y-13101670D02*
X32827381Y-13077860D01*
X32827381Y-13077860D02*
X32815476Y-13054050D01*
X32815476Y-13054050D02*
X32803572Y-13006431D01*
X32803572Y-13006431D02*
X32803572Y-12970717D01*
X32803572Y-12970717D02*
X32815476Y-12923098D01*
X32815476Y-12923098D02*
X32827381Y-12899289D01*
X32827381Y-12899289D02*
X32851191Y-12875479D01*
X32851191Y-12875479D02*
X32886905Y-12863574D01*
X32886905Y-12863574D02*
X32910714Y-12863574D01*
X32910714Y-12863574D02*
X32946429Y-12875479D01*
X32946429Y-12875479D02*
X32958333Y-12887384D01*
X33041667Y-12863574D02*
X33208333Y-12863574D01*
X33208333Y-12863574D02*
X33101191Y-13113574D01*
D10*
X18614819Y-26357143D02*
X18614819Y-26928571D01*
X18614819Y-26642857D02*
X17614819Y-26642857D01*
X17614819Y-26642857D02*
X17757676Y-26738095D01*
X17757676Y-26738095D02*
X17852914Y-26833333D01*
X17852914Y-26833333D02*
X17900533Y-26928571D01*
X17948152Y-25500000D02*
X18614819Y-25500000D01*
X17948152Y-25928571D02*
X18471961Y-25928571D01*
X18471961Y-25928571D02*
X18567200Y-25880952D01*
X18567200Y-25880952D02*
X18614819Y-25785714D01*
X18614819Y-25785714D02*
X18614819Y-25642857D01*
X18614819Y-25642857D02*
X18567200Y-25547619D01*
X18567200Y-25547619D02*
X18519580Y-25500000D01*
X18091009Y-24690476D02*
X18091009Y-25023809D01*
X18614819Y-25023809D02*
X17614819Y-25023809D01*
X17614819Y-25023809D02*
X17614819Y-24547619D01*
X18614819Y-22880952D02*
X18614819Y-23452380D01*
X18614819Y-23166666D02*
X17614819Y-23166666D01*
X17614819Y-23166666D02*
X17757676Y-23261904D01*
X17757676Y-23261904D02*
X17852914Y-23357142D01*
X17852914Y-23357142D02*
X17900533Y-23452380D01*
X17614819Y-22261904D02*
X17614819Y-22166666D01*
X17614819Y-22166666D02*
X17662438Y-22071428D01*
X17662438Y-22071428D02*
X17710057Y-22023809D01*
X17710057Y-22023809D02*
X17805295Y-21976190D01*
X17805295Y-21976190D02*
X17995771Y-21928571D01*
X17995771Y-21928571D02*
X18233866Y-21928571D01*
X18233866Y-21928571D02*
X18424342Y-21976190D01*
X18424342Y-21976190D02*
X18519580Y-22023809D01*
X18519580Y-22023809D02*
X18567200Y-22071428D01*
X18567200Y-22071428D02*
X18614819Y-22166666D01*
X18614819Y-22166666D02*
X18614819Y-22261904D01*
X18614819Y-22261904D02*
X18567200Y-22357142D01*
X18567200Y-22357142D02*
X18519580Y-22404761D01*
X18519580Y-22404761D02*
X18424342Y-22452380D01*
X18424342Y-22452380D02*
X18233866Y-22499999D01*
X18233866Y-22499999D02*
X17995771Y-22499999D01*
X17995771Y-22499999D02*
X17805295Y-22452380D01*
X17805295Y-22452380D02*
X17710057Y-22404761D01*
X17710057Y-22404761D02*
X17662438Y-22357142D01*
X17662438Y-22357142D02*
X17614819Y-22261904D01*
X17614819Y-21642856D02*
X18614819Y-21309523D01*
X18614819Y-21309523D02*
X17614819Y-20976190D01*
D12*
X17089765Y-24041666D02*
X17101670Y-24053570D01*
X17101670Y-24053570D02*
X17113574Y-24089285D01*
X17113574Y-24089285D02*
X17113574Y-24113094D01*
X17113574Y-24113094D02*
X17101670Y-24148808D01*
X17101670Y-24148808D02*
X17077860Y-24172618D01*
X17077860Y-24172618D02*
X17054050Y-24184523D01*
X17054050Y-24184523D02*
X17006431Y-24196427D01*
X17006431Y-24196427D02*
X16970717Y-24196427D01*
X16970717Y-24196427D02*
X16923098Y-24184523D01*
X16923098Y-24184523D02*
X16899289Y-24172618D01*
X16899289Y-24172618D02*
X16875479Y-24148808D01*
X16875479Y-24148808D02*
X16863574Y-24113094D01*
X16863574Y-24113094D02*
X16863574Y-24089285D01*
X16863574Y-24089285D02*
X16875479Y-24053570D01*
X16875479Y-24053570D02*
X16887384Y-24041666D01*
X16887384Y-23946427D02*
X16875479Y-23934523D01*
X16875479Y-23934523D02*
X16863574Y-23910713D01*
X16863574Y-23910713D02*
X16863574Y-23851189D01*
X16863574Y-23851189D02*
X16875479Y-23827380D01*
X16875479Y-23827380D02*
X16887384Y-23815475D01*
X16887384Y-23815475D02*
X16911193Y-23803570D01*
X16911193Y-23803570D02*
X16935003Y-23803570D01*
X16935003Y-23803570D02*
X16970717Y-23815475D01*
X16970717Y-23815475D02*
X17113574Y-23958332D01*
X17113574Y-23958332D02*
X17113574Y-23803570D01*
D10*
X16071428Y-21607200D02*
X16214285Y-21654819D01*
X16214285Y-21654819D02*
X16452380Y-21654819D01*
X16452380Y-21654819D02*
X16547618Y-21607200D01*
X16547618Y-21607200D02*
X16595237Y-21559580D01*
X16595237Y-21559580D02*
X16642856Y-21464342D01*
X16642856Y-21464342D02*
X16642856Y-21369104D01*
X16642856Y-21369104D02*
X16595237Y-21273866D01*
X16595237Y-21273866D02*
X16547618Y-21226247D01*
X16547618Y-21226247D02*
X16452380Y-21178628D01*
X16452380Y-21178628D02*
X16261904Y-21131009D01*
X16261904Y-21131009D02*
X16166666Y-21083390D01*
X16166666Y-21083390D02*
X16119047Y-21035771D01*
X16119047Y-21035771D02*
X16071428Y-20940533D01*
X16071428Y-20940533D02*
X16071428Y-20845295D01*
X16071428Y-20845295D02*
X16119047Y-20750057D01*
X16119047Y-20750057D02*
X16166666Y-20702438D01*
X16166666Y-20702438D02*
X16261904Y-20654819D01*
X16261904Y-20654819D02*
X16499999Y-20654819D01*
X16499999Y-20654819D02*
X16642856Y-20702438D01*
X16928571Y-20654819D02*
X17499999Y-20654819D01*
X17214285Y-21654819D02*
X17214285Y-20654819D01*
X17833333Y-21654819D02*
X17833333Y-20654819D01*
X17833333Y-20654819D02*
X18166666Y-21369104D01*
X18166666Y-21369104D02*
X18499999Y-20654819D01*
X18499999Y-20654819D02*
X18499999Y-21654819D01*
X18880952Y-20654819D02*
X19499999Y-20654819D01*
X19499999Y-20654819D02*
X19166666Y-21035771D01*
X19166666Y-21035771D02*
X19309523Y-21035771D01*
X19309523Y-21035771D02*
X19404761Y-21083390D01*
X19404761Y-21083390D02*
X19452380Y-21131009D01*
X19452380Y-21131009D02*
X19499999Y-21226247D01*
X19499999Y-21226247D02*
X19499999Y-21464342D01*
X19499999Y-21464342D02*
X19452380Y-21559580D01*
X19452380Y-21559580D02*
X19404761Y-21607200D01*
X19404761Y-21607200D02*
X19309523Y-21654819D01*
X19309523Y-21654819D02*
X19023809Y-21654819D01*
X19023809Y-21654819D02*
X18928571Y-21607200D01*
X18928571Y-21607200D02*
X18880952Y-21559580D01*
X19880952Y-20750057D02*
X19928571Y-20702438D01*
X19928571Y-20702438D02*
X20023809Y-20654819D01*
X20023809Y-20654819D02*
X20261904Y-20654819D01*
X20261904Y-20654819D02*
X20357142Y-20702438D01*
X20357142Y-20702438D02*
X20404761Y-20750057D01*
X20404761Y-20750057D02*
X20452380Y-20845295D01*
X20452380Y-20845295D02*
X20452380Y-20940533D01*
X20452380Y-20940533D02*
X20404761Y-21083390D01*
X20404761Y-21083390D02*
X19833333Y-21654819D01*
X19833333Y-21654819D02*
X20452380Y-21654819D01*
X21404761Y-20702438D02*
X21309523Y-20654819D01*
X21309523Y-20654819D02*
X21166666Y-20654819D01*
X21166666Y-20654819D02*
X21023809Y-20702438D01*
X21023809Y-20702438D02*
X20928571Y-20797676D01*
X20928571Y-20797676D02*
X20880952Y-20892914D01*
X20880952Y-20892914D02*
X20833333Y-21083390D01*
X20833333Y-21083390D02*
X20833333Y-21226247D01*
X20833333Y-21226247D02*
X20880952Y-21416723D01*
X20880952Y-21416723D02*
X20928571Y-21511961D01*
X20928571Y-21511961D02*
X21023809Y-21607200D01*
X21023809Y-21607200D02*
X21166666Y-21654819D01*
X21166666Y-21654819D02*
X21261904Y-21654819D01*
X21261904Y-21654819D02*
X21404761Y-21607200D01*
X21404761Y-21607200D02*
X21452380Y-21559580D01*
X21452380Y-21559580D02*
X21452380Y-21226247D01*
X21452380Y-21226247D02*
X21261904Y-21226247D01*
X22071428Y-20654819D02*
X22166666Y-20654819D01*
X22166666Y-20654819D02*
X22261904Y-20702438D01*
X22261904Y-20702438D02*
X22309523Y-20750057D01*
X22309523Y-20750057D02*
X22357142Y-20845295D01*
X22357142Y-20845295D02*
X22404761Y-21035771D01*
X22404761Y-21035771D02*
X22404761Y-21273866D01*
X22404761Y-21273866D02*
X22357142Y-21464342D01*
X22357142Y-21464342D02*
X22309523Y-21559580D01*
X22309523Y-21559580D02*
X22261904Y-21607200D01*
X22261904Y-21607200D02*
X22166666Y-21654819D01*
X22166666Y-21654819D02*
X22071428Y-21654819D01*
X22071428Y-21654819D02*
X21976190Y-21607200D01*
X21976190Y-21607200D02*
X21928571Y-21559580D01*
X21928571Y-21559580D02*
X21880952Y-21464342D01*
X21880952Y-21464342D02*
X21833333Y-21273866D01*
X21833333Y-21273866D02*
X21833333Y-21035771D01*
X21833333Y-21035771D02*
X21880952Y-20845295D01*
X21880952Y-20845295D02*
X21928571Y-20750057D01*
X21928571Y-20750057D02*
X21976190Y-20702438D01*
X21976190Y-20702438D02*
X22071428Y-20654819D01*
X22738095Y-20654819D02*
X23357142Y-20654819D01*
X23357142Y-20654819D02*
X23023809Y-21035771D01*
X23023809Y-21035771D02*
X23166666Y-21035771D01*
X23166666Y-21035771D02*
X23261904Y-21083390D01*
X23261904Y-21083390D02*
X23309523Y-21131009D01*
X23309523Y-21131009D02*
X23357142Y-21226247D01*
X23357142Y-21226247D02*
X23357142Y-21464342D01*
X23357142Y-21464342D02*
X23309523Y-21559580D01*
X23309523Y-21559580D02*
X23261904Y-21607200D01*
X23261904Y-21607200D02*
X23166666Y-21654819D01*
X23166666Y-21654819D02*
X22880952Y-21654819D01*
X22880952Y-21654819D02*
X22785714Y-21607200D01*
X22785714Y-21607200D02*
X22738095Y-21559580D01*
X24309523Y-21654819D02*
X23738095Y-21654819D01*
X24023809Y-21654819D02*
X24023809Y-20654819D01*
X24023809Y-20654819D02*
X23928571Y-20797676D01*
X23928571Y-20797676D02*
X23833333Y-20892914D01*
X23833333Y-20892914D02*
X23738095Y-20940533D01*
X25071428Y-21131009D02*
X24738095Y-21131009D01*
X24738095Y-21654819D02*
X24738095Y-20654819D01*
X24738095Y-20654819D02*
X25214285Y-20654819D01*
X25738095Y-21083390D02*
X25642857Y-21035771D01*
X25642857Y-21035771D02*
X25595238Y-20988152D01*
X25595238Y-20988152D02*
X25547619Y-20892914D01*
X25547619Y-20892914D02*
X25547619Y-20845295D01*
X25547619Y-20845295D02*
X25595238Y-20750057D01*
X25595238Y-20750057D02*
X25642857Y-20702438D01*
X25642857Y-20702438D02*
X25738095Y-20654819D01*
X25738095Y-20654819D02*
X25928571Y-20654819D01*
X25928571Y-20654819D02*
X26023809Y-20702438D01*
X26023809Y-20702438D02*
X26071428Y-20750057D01*
X26071428Y-20750057D02*
X26119047Y-20845295D01*
X26119047Y-20845295D02*
X26119047Y-20892914D01*
X26119047Y-20892914D02*
X26071428Y-20988152D01*
X26071428Y-20988152D02*
X26023809Y-21035771D01*
X26023809Y-21035771D02*
X25928571Y-21083390D01*
X25928571Y-21083390D02*
X25738095Y-21083390D01*
X25738095Y-21083390D02*
X25642857Y-21131009D01*
X25642857Y-21131009D02*
X25595238Y-21178628D01*
X25595238Y-21178628D02*
X25547619Y-21273866D01*
X25547619Y-21273866D02*
X25547619Y-21464342D01*
X25547619Y-21464342D02*
X25595238Y-21559580D01*
X25595238Y-21559580D02*
X25642857Y-21607200D01*
X25642857Y-21607200D02*
X25738095Y-21654819D01*
X25738095Y-21654819D02*
X25928571Y-21654819D01*
X25928571Y-21654819D02*
X26023809Y-21607200D01*
X26023809Y-21607200D02*
X26071428Y-21559580D01*
X26071428Y-21559580D02*
X26119047Y-21464342D01*
X26119047Y-21464342D02*
X26119047Y-21273866D01*
X26119047Y-21273866D02*
X26071428Y-21178628D01*
X26071428Y-21178628D02*
X26023809Y-21131009D01*
X26023809Y-21131009D02*
X25928571Y-21083390D01*
X26547619Y-21654819D02*
X26547619Y-20654819D01*
X26547619Y-20654819D02*
X26928571Y-20654819D01*
X26928571Y-20654819D02*
X27023809Y-20702438D01*
X27023809Y-20702438D02*
X27071428Y-20750057D01*
X27071428Y-20750057D02*
X27119047Y-20845295D01*
X27119047Y-20845295D02*
X27119047Y-20988152D01*
X27119047Y-20988152D02*
X27071428Y-21083390D01*
X27071428Y-21083390D02*
X27023809Y-21131009D01*
X27023809Y-21131009D02*
X26928571Y-21178628D01*
X26928571Y-21178628D02*
X26547619Y-21178628D01*
X27452381Y-21654819D02*
X27976190Y-20988152D01*
X27452381Y-20988152D02*
X27976190Y-21654819D01*
X21238095Y-16454819D02*
X21238095Y-17264342D01*
X21238095Y-17264342D02*
X21285714Y-17359580D01*
X21285714Y-17359580D02*
X21333333Y-17407200D01*
X21333333Y-17407200D02*
X21428571Y-17454819D01*
X21428571Y-17454819D02*
X21619047Y-17454819D01*
X21619047Y-17454819D02*
X21714285Y-17407200D01*
X21714285Y-17407200D02*
X21761904Y-17359580D01*
X21761904Y-17359580D02*
X21809523Y-17264342D01*
X21809523Y-17264342D02*
X21809523Y-16454819D01*
X22238095Y-16550057D02*
X22285714Y-16502438D01*
X22285714Y-16502438D02*
X22380952Y-16454819D01*
X22380952Y-16454819D02*
X22619047Y-16454819D01*
X22619047Y-16454819D02*
X22714285Y-16502438D01*
X22714285Y-16502438D02*
X22761904Y-16550057D01*
X22761904Y-16550057D02*
X22809523Y-16645295D01*
X22809523Y-16645295D02*
X22809523Y-16740533D01*
X22809523Y-16740533D02*
X22761904Y-16883390D01*
X22761904Y-16883390D02*
X22190476Y-17454819D01*
X22190476Y-17454819D02*
X22809523Y-17454819D01*
%TO.C,J3*%
D14*
X35730000Y-4365000D02*
X36365000Y-3730000D01*
X35730000Y-13890000D02*
X35730000Y-4365000D01*
X36365000Y-3730000D02*
X38270000Y-3730000D01*
X38270000Y-3730000D02*
X38270000Y-13890000D01*
X38270000Y-13890000D02*
X35730000Y-13890000D01*
%TO.C,U1*%
X13675000Y-22550000D02*
X14650000Y-22550000D01*
X14650000Y-25450000D01*
X13350000Y-25450000D01*
X13350000Y-22875000D01*
X13675000Y-22550000D01*
%TO.C,C4*%
X18500000Y-11750000D02*
X19500000Y-11750000D01*
X19500000Y-12250000D01*
X18500000Y-12250000D01*
X18500000Y-11750000D01*
%TO.C,C3*%
X10750000Y-23500000D02*
X11250000Y-23500000D01*
X11250000Y-24500000D01*
X10750000Y-24500000D01*
X10750000Y-23500000D01*
%TO.C,R1*%
X21475000Y-21730000D02*
X22525000Y-21730000D01*
X22525000Y-22270000D01*
X21475000Y-22270000D01*
X21475000Y-21730000D01*
%TO.C,J1*%
X50000Y-5650000D02*
X50000Y-13250000D01*
X50000Y-13250000D02*
X7950000Y-13250000D01*
X750000Y-5650000D02*
X50000Y-5650000D01*
X750000Y-7250000D02*
X750000Y-5650000D01*
X1500000Y-8375000D02*
X2500000Y-8375000D01*
X2000000Y-7875000D02*
X1500000Y-8375000D01*
X2500000Y-8375000D02*
X2000000Y-7875000D01*
X7250000Y-5650000D02*
X7250000Y-7250000D01*
X7250000Y-7250000D02*
X750000Y-7250000D01*
X7950000Y-5650000D02*
X7250000Y-5650000D01*
X7950000Y-13250000D02*
X7950000Y-5650000D01*
%TO.C,C5*%
X21500000Y-11750000D02*
X22500000Y-11750000D01*
X22500000Y-12250000D01*
X21500000Y-12250000D01*
X21500000Y-11750000D01*
%TO.C,U3*%
X32125000Y-15750000D02*
X34500000Y-15750000D01*
X34500000Y-18250000D01*
X31500000Y-18250000D01*
X31500000Y-16375000D01*
X32125000Y-15750000D01*
%TO.C,U4*%
X13600000Y-9550000D02*
X14800000Y-9550000D01*
X14800000Y-12450000D01*
X13200000Y-12450000D01*
X13200000Y-9950000D01*
X13600000Y-9550000D01*
%TO.C,C6*%
X24500000Y-11750000D02*
X25500000Y-11750000D01*
X25500000Y-12250000D01*
X24500000Y-12250000D01*
X24500000Y-11750000D01*
%TO.C,C1*%
X11000000Y-19375000D02*
X13000000Y-19375000D01*
X13000000Y-20625000D01*
X11000000Y-20625000D01*
X11000000Y-19375000D01*
%TO.C,J2*%
X50000Y-20650000D02*
X50000Y-28250000D01*
X50000Y-28250000D02*
X7950000Y-28250000D01*
X750000Y-20650000D02*
X50000Y-20650000D01*
X750000Y-22250000D02*
X750000Y-20650000D01*
X1500000Y-23375000D02*
X2500000Y-23375000D01*
X2000000Y-22875000D02*
X1500000Y-23375000D01*
X2500000Y-23375000D02*
X2000000Y-22875000D01*
X7250000Y-20650000D02*
X7250000Y-22250000D01*
X7250000Y-22250000D02*
X750000Y-22250000D01*
X7950000Y-20650000D02*
X7250000Y-20650000D01*
X7950000Y-28250000D02*
X7950000Y-20650000D01*
%TO.C,C7*%
X32500000Y-12750000D02*
X33500000Y-12750000D01*
X33500000Y-13250000D01*
X32500000Y-13250000D01*
X32500000Y-12750000D01*
%TO.C,C2*%
X16750000Y-23500000D02*
X17250000Y-23500000D01*
X17250000Y-24500000D01*
X16750000Y-24500000D01*
X16750000Y-23500000D01*
%TO.C,U2*%
X20800000Y-13750000D02*
X24200000Y-13750000D01*
X24200000Y-20250000D01*
X19800000Y-20250000D01*
X19800000Y-14750000D01*
X20800000Y-13750000D01*
%TD*%
M02*
