%TF.GenerationSoftware,KiCad,Pcbnew,10.0.6*%
%TF.CreationDate,2026-09-03T10:12:44+08:00*%
%TF.ProjectId,imu_to_dxl,696d755f-746f-45f6-9478-6c2e6b696361,rev?*%
%TF.SameCoordinates,Original*%
%TF.FileFunction,Other,User*%
%FSLAX46Y46*%
G04 Gerber Fmt 4.6, Leading zero omitted, Abs format (unit mm)*
G04 Created by KiCad (PCBNEW 10.0.6) date 2026-09-03 10:12:44*
%MOMM*%
%LPD*%
G01*
G04 APERTURE LIST*
%ADD10C,0.050000*%
G04 APERTURE END LIST*
%TO.C,J3*%
D10*
X35230000Y-3230000D02*
X38770000Y-3230000D01*
X38770000Y-14390000D01*
X35230000Y-14390000D01*
X35230000Y-3230000D01*
%TO.C,U1*%
X12070000Y-22500000D02*
X13100000Y-22500000D01*
X12070000Y-23610000D02*
X12070000Y-22500000D01*
X12070000Y-24390000D02*
X13100000Y-24390000D01*
X12070000Y-25500000D02*
X12070000Y-24390000D01*
X13100000Y-22300000D02*
X14900000Y-22300000D01*
X13100000Y-22500000D02*
X13100000Y-22300000D01*
X13100000Y-23610000D02*
X12070000Y-23610000D01*
X13100000Y-24390000D02*
X13100000Y-23610000D01*
X13100000Y-25500000D02*
X12070000Y-25500000D01*
X13100000Y-25700000D02*
X13100000Y-25500000D01*
X14900000Y-22300000D02*
X14900000Y-23450000D01*
X14900000Y-23450000D02*
X15930000Y-23450000D01*
X14900000Y-24550000D02*
X14900000Y-25700000D01*
X14900000Y-25700000D02*
X13100000Y-25700000D01*
X15930000Y-23450000D02*
X15930000Y-24550000D01*
X15930000Y-24550000D02*
X14900000Y-24550000D01*
%TO.C,C4*%
X18090000Y-11540000D02*
X19910000Y-11540000D01*
X19910000Y-12460000D01*
X18090000Y-12460000D01*
X18090000Y-11540000D01*
%TO.C,C3*%
X10540000Y-23090000D02*
X11460000Y-23090000D01*
X11460000Y-24910000D01*
X10540000Y-24910000D01*
X10540000Y-23090000D01*
%TO.C,R1*%
X21070000Y-21530000D02*
X22930000Y-21530000D01*
X22930000Y-22470000D01*
X21070000Y-22470000D01*
X21070000Y-21530000D01*
%TO.C,J1*%
X-450000Y-5150000D02*
X8450000Y-5150000D01*
X8450000Y-13750000D01*
X-450000Y-13750000D01*
X-450000Y-5150000D01*
%TO.C,C5*%
X21090000Y-11540000D02*
X22910000Y-11540000D01*
X22910000Y-12460000D01*
X21090000Y-12460000D01*
X21090000Y-11540000D01*
%TO.C,U3*%
X31250000Y-15500000D02*
X34750000Y-15500000D01*
X34750000Y-18500000D01*
X31250000Y-18500000D01*
X31250000Y-15500000D01*
%TO.C,U4*%
X11950000Y-9500000D02*
X12950000Y-9500000D01*
X11950000Y-12500000D02*
X11950000Y-9500000D01*
X12950000Y-9300000D02*
X15050000Y-9300000D01*
X12950000Y-9500000D02*
X12950000Y-9300000D01*
X12950000Y-12500000D02*
X11950000Y-12500000D01*
X12950000Y-12700000D02*
X12950000Y-12500000D01*
X15050000Y-9300000D02*
X15050000Y-9500000D01*
X15050000Y-9500000D02*
X16050000Y-9500000D01*
X15050000Y-10610000D02*
X15050000Y-11390000D01*
X15050000Y-11390000D02*
X16050000Y-11390000D01*
X15050000Y-12500000D02*
X15050000Y-12700000D01*
X15050000Y-12700000D02*
X12950000Y-12700000D01*
X16050000Y-9500000D02*
X16050000Y-10610000D01*
X16050000Y-10610000D02*
X15050000Y-10610000D01*
X16050000Y-11390000D02*
X16050000Y-12500000D01*
X16050000Y-12500000D02*
X15050000Y-12500000D01*
%TO.C,C6*%
X24090000Y-11540000D02*
X25910000Y-11540000D01*
X25910000Y-12460000D01*
X24090000Y-12460000D01*
X24090000Y-11540000D01*
%TO.C,C1*%
X10300000Y-19020000D02*
X13700000Y-19020000D01*
X13700000Y-20980000D01*
X10300000Y-20980000D01*
X10300000Y-19020000D01*
%TO.C,J2*%
X-450000Y-20150000D02*
X8450000Y-20150000D01*
X8450000Y-28750000D01*
X-450000Y-28750000D01*
X-450000Y-20150000D01*
%TO.C,C7*%
X32090000Y-12540000D02*
X33910000Y-12540000D01*
X33910000Y-13460000D01*
X32090000Y-13460000D01*
X32090000Y-12540000D01*
%TO.C,C2*%
X16540000Y-23090000D02*
X17460000Y-23090000D01*
X17460000Y-24910000D01*
X16540000Y-24910000D01*
X16540000Y-23090000D01*
%TO.C,U2*%
X18150000Y-13620000D02*
X19550000Y-13620000D01*
X18150000Y-20380000D02*
X18150000Y-13620000D01*
X19550000Y-13500000D02*
X24450000Y-13500000D01*
X19550000Y-13620000D02*
X19550000Y-13500000D01*
X19550000Y-20380000D02*
X18150000Y-20380000D01*
X19550000Y-20500000D02*
X19550000Y-20380000D01*
X24450000Y-13500000D02*
X24450000Y-13620000D01*
X24450000Y-13620000D02*
X25850000Y-13620000D01*
X24450000Y-20380000D02*
X24450000Y-20500000D01*
X24450000Y-20500000D02*
X19550000Y-20500000D01*
X25850000Y-13620000D02*
X25850000Y-20380000D01*
X25850000Y-20380000D02*
X24450000Y-20380000D01*
%TD*%
M02*
