%TF.GenerationSoftware,KiCad,Pcbnew,10.0.6*%
%TF.CreationDate,2026-09-03T10:12:44+08:00*%
%TF.ProjectId,imu_to_dxl,696d755f-746f-45f6-9478-6c2e6b696361,rev?*%
%TF.SameCoordinates,Original*%
%TF.FileFunction,Copper,L2,Bot*%
%TF.FilePolarity,Positive*%
%FSLAX46Y46*%
G04 Gerber Fmt 4.6, Leading zero omitted, Abs format (unit mm)*
G04 Created by KiCad (PCBNEW 10.0.6) date 2026-09-03 10:12:44*
%MOMM*%
%LPD*%
G01*
G04 APERTURE LIST*
G04 Aperture macros list*
%AMRoundRect*
0 Rectangle with rounded corners*
0 $1 Rounding radius*
0 $2 $3 $4 $5 $6 $7 $8 $9 X,Y pos of 4 corners*
0 Add a 4 corners polygon primitive as box body*
4,1,4,$2,$3,$4,$5,$6,$7,$8,$9,$2,$3,0*
0 Add four circle primitives for the rounded corners*
1,1,$1+$1,$2,$3*
1,1,$1+$1,$4,$5*
1,1,$1+$1,$6,$7*
1,1,$1+$1,$8,$9*
0 Add four rect primitives between the rounded corners*
20,1,$1+$1,$2,$3,$4,$5,0*
20,1,$1+$1,$4,$5,$6,$7,0*
20,1,$1+$1,$6,$7,$8,$9,0*
20,1,$1+$1,$8,$9,$2,$3,0*%
G04 Aperture macros list end*
%TA.AperFunction,ComponentPad*%
%ADD10R,1.700000X1.700000*%
%TD*%
%TA.AperFunction,ComponentPad*%
%ADD11C,1.700000*%
%TD*%
%TA.AperFunction,ComponentPad*%
%ADD12RoundRect,0.250000X-0.350000X-0.625000X0.350000X-0.625000X0.350000X0.625000X-0.350000X0.625000X0*%
%TD*%
%TA.AperFunction,ComponentPad*%
%ADD13O,1.200000X1.750000*%
%TD*%
%TA.AperFunction,ViaPad*%
%ADD14C,0.700000*%
%TD*%
%TA.AperFunction,Conductor*%
%ADD15C,0.250000*%
%TD*%
%TA.AperFunction,Conductor*%
%ADD16C,0.500000*%
%TD*%
G04 APERTURE END LIST*
D10*
%TO.P,J3,1*%
%TO.N,GND*%
X37000000Y-5000000D03*
D11*
%TO.P,J3,2*%
%TO.N,SWDCLK*%
X37000000Y-7540000D03*
%TO.P,J3,3*%
%TO.N,SWDIO*%
X37000000Y-10080000D03*
%TO.P,J3,4*%
%TO.N,+3V3*%
X37000000Y-12620000D03*
%TD*%
D12*
%TO.P,J1,1*%
%TO.N,GND*%
X2000000Y-7000000D03*
D13*
%TO.P,J1,2*%
%TO.N,VDD_BUS*%
X4000000Y-7000000D03*
%TO.P,J1,3*%
%TO.N,DXL_DATA*%
X6000000Y-7000000D03*
%TD*%
D12*
%TO.P,J2,1*%
%TO.N,GND*%
X2000000Y-22000000D03*
D13*
%TO.P,J2,2*%
%TO.N,VDD_BUS*%
X4000000Y-22000000D03*
%TO.P,J2,3*%
%TO.N,DXL_DATA*%
X6000000Y-22000000D03*
%TD*%
D14*
%TO.N,SWDCLK*%
X34955300Y-12912400D03*
%TO.N,SWDIO*%
X31924700Y-15462300D03*
%TO.N,BOOT0*%
X21119800Y-20856300D03*
X20811200Y-14164100D03*
%TO.N,SPI_MISO*%
X30787400Y-16106100D03*
X29015100Y-17807500D03*
%TO.N,IMU_INT2*%
X31651700Y-20003400D03*
X35056000Y-17406000D03*
%TO.N,SPI_CS*%
X29421400Y-19392500D03*
X32775200Y-16989700D03*
%TO.N,DE*%
X20569400Y-17263800D03*
X19385000Y-12816200D03*
%TD*%
%TO.N,SWDCLK*%
D15*
X34955000Y-9585000D02*
X37000000Y-7540000D01*
X34955300Y-12912400D02*
X34955300Y-9584700D01*
%TO.N,SWDIO*%
X35869300Y-12973100D02*
X33380100Y-15462300D01*
X33380100Y-15462300D02*
X31924700Y-15462300D01*
X35869000Y-11211000D02*
X37000000Y-10080000D01*
X35869300Y-11210700D02*
X35869300Y-12973100D01*
%TO.N,BOOT0*%
X21215800Y-20760300D02*
X21119800Y-20856300D01*
X20811200Y-14164100D02*
X21215800Y-14568700D01*
X21215800Y-14568700D02*
X21215800Y-20760300D01*
%TO.N,DXL_DATA*%
D16*
X6000000Y-7000000D02*
X6000000Y-22000000D01*
%TO.N,SPI_MISO*%
D15*
X29086000Y-17807500D02*
X30787400Y-16106100D01*
X29015100Y-17807500D02*
X29086000Y-17807500D01*
%TO.N,IMU_INT2*%
X35056000Y-17406000D02*
X32458600Y-20003400D01*
X32458600Y-20003400D02*
X31651700Y-20003400D01*
%TO.N,SPI_CS*%
X30372400Y-19392500D02*
X29421400Y-19392500D01*
X32775200Y-16989700D02*
X30372400Y-19392500D01*
%TO.N,DE*%
X19385000Y-16079400D02*
X19385000Y-12816200D01*
X20569400Y-17263800D02*
X19385000Y-16079400D01*
%TD*%
%TA.AperFunction,Conductor*%
%TO.N,GND*%
G36*
X39458691Y-519407D02*
G01*
X39494655Y-568907D01*
X39499500Y-599500D01*
X39499500Y-29400500D01*
X39480593Y-29458691D01*
X39431093Y-29494655D01*
X39400500Y-29499500D01*
X599500Y-29499500D01*
X541309Y-29480593D01*
X505345Y-29431093D01*
X500500Y-29400500D01*
X500500Y-27393709D01*
X1149500Y-27393709D01*
X1149500Y-27606290D01*
X1182752Y-27816238D01*
X1248443Y-28018412D01*
X1344948Y-28207815D01*
X1344950Y-28207819D01*
X1469891Y-28379786D01*
X1469893Y-28379788D01*
X1469896Y-28379792D01*
X1620208Y-28530104D01*
X1620211Y-28530106D01*
X1620213Y-28530108D01*
X1792180Y-28655049D01*
X1792184Y-28655051D01*
X1981588Y-28751557D01*
X2183757Y-28817246D01*
X2183758Y-28817246D01*
X2183761Y-28817247D01*
X2393710Y-28850500D01*
X2393713Y-28850500D01*
X2606290Y-28850500D01*
X2816238Y-28817247D01*
X2816239Y-28817246D01*
X2816243Y-28817246D01*
X3018412Y-28751557D01*
X3207816Y-28655051D01*
X3379792Y-28530104D01*
X3530104Y-28379792D01*
X3655051Y-28207816D01*
X3751557Y-28018412D01*
X3817246Y-27816243D01*
X3850500Y-27606287D01*
X3850500Y-27393713D01*
X3850500Y-27393709D01*
X36149500Y-27393709D01*
X36149500Y-27606290D01*
X36182752Y-27816238D01*
X36248443Y-28018412D01*
X36344948Y-28207815D01*
X36344950Y-28207819D01*
X36469891Y-28379786D01*
X36469893Y-28379788D01*
X36469896Y-28379792D01*
X36620208Y-28530104D01*
X36620211Y-28530106D01*
X36620213Y-28530108D01*
X36792180Y-28655049D01*
X36792184Y-28655051D01*
X36981588Y-28751557D01*
X37183757Y-28817246D01*
X37183758Y-28817246D01*
X37183761Y-28817247D01*
X37393710Y-28850500D01*
X37393713Y-28850500D01*
X37606290Y-28850500D01*
X37816238Y-28817247D01*
X37816239Y-28817246D01*
X37816243Y-28817246D01*
X38018412Y-28751557D01*
X38207816Y-28655051D01*
X38379792Y-28530104D01*
X38530104Y-28379792D01*
X38655051Y-28207816D01*
X38751557Y-28018412D01*
X38817246Y-27816243D01*
X38850500Y-27606287D01*
X38850500Y-27393713D01*
X38850500Y-27393709D01*
X38817247Y-27183761D01*
X38817246Y-27183757D01*
X38751557Y-26981588D01*
X38655051Y-26792184D01*
X38655049Y-26792180D01*
X38530108Y-26620213D01*
X38530106Y-26620211D01*
X38530104Y-26620208D01*
X38379792Y-26469896D01*
X38379788Y-26469893D01*
X38379786Y-26469891D01*
X38207819Y-26344950D01*
X38207815Y-26344948D01*
X38018412Y-26248443D01*
X37816238Y-26182752D01*
X37606290Y-26149500D01*
X37606287Y-26149500D01*
X37393713Y-26149500D01*
X37393710Y-26149500D01*
X37183761Y-26182752D01*
X36981587Y-26248443D01*
X36792184Y-26344948D01*
X36792180Y-26344950D01*
X36620213Y-26469891D01*
X36469891Y-26620213D01*
X36344950Y-26792180D01*
X36344948Y-26792184D01*
X36248443Y-26981587D01*
X36182752Y-27183761D01*
X36149500Y-27393709D01*
X3850500Y-27393709D01*
X3817247Y-27183761D01*
X3817246Y-27183757D01*
X3751557Y-26981588D01*
X3655051Y-26792184D01*
X3655049Y-26792180D01*
X3530108Y-26620213D01*
X3530106Y-26620211D01*
X3530104Y-26620208D01*
X3379792Y-26469896D01*
X3379788Y-26469893D01*
X3379786Y-26469891D01*
X3207819Y-26344950D01*
X3207815Y-26344948D01*
X3018412Y-26248443D01*
X2816238Y-26182752D01*
X2606290Y-26149500D01*
X2606287Y-26149500D01*
X2393713Y-26149500D01*
X2393710Y-26149500D01*
X2183761Y-26182752D01*
X1981587Y-26248443D01*
X1792184Y-26344948D01*
X1792180Y-26344950D01*
X1620213Y-26469891D01*
X1469891Y-26620213D01*
X1344950Y-26792180D01*
X1344948Y-26792184D01*
X1248443Y-26981587D01*
X1182752Y-27183761D01*
X1149500Y-27393709D01*
X500500Y-27393709D01*
X500500Y-21636306D01*
X3099500Y-21636306D01*
X3099500Y-22363693D01*
X3134106Y-22537665D01*
X3134106Y-22537667D01*
X3201985Y-22701544D01*
X3201985Y-22701545D01*
X3300535Y-22849034D01*
X3300536Y-22849035D01*
X3425965Y-22974464D01*
X3573453Y-23073013D01*
X3737334Y-23140894D01*
X3911309Y-23175500D01*
X3911310Y-23175500D01*
X4088690Y-23175500D01*
X4088691Y-23175500D01*
X4262666Y-23140894D01*
X4426547Y-23073013D01*
X4574035Y-22974464D01*
X4699464Y-22849035D01*
X4798013Y-22701547D01*
X4865894Y-22537666D01*
X4900500Y-22363691D01*
X4900500Y-21636309D01*
X4865894Y-21462334D01*
X4824159Y-21361575D01*
X4798014Y-21298455D01*
X4798014Y-21298454D01*
X4699464Y-21150965D01*
X4574034Y-21025535D01*
X4426544Y-20926985D01*
X4262666Y-20859106D01*
X4088693Y-20824500D01*
X4088691Y-20824500D01*
X3911309Y-20824500D01*
X3911306Y-20824500D01*
X3737334Y-20859106D01*
X3737332Y-20859106D01*
X3573455Y-20926985D01*
X3573454Y-20926985D01*
X3425965Y-21025535D01*
X3300535Y-21150965D01*
X3201985Y-21298454D01*
X3201985Y-21298455D01*
X3134106Y-21462332D01*
X3134106Y-21462334D01*
X3099500Y-21636306D01*
X500500Y-21636306D01*
X500500Y-6636306D01*
X3099500Y-6636306D01*
X3099500Y-7363693D01*
X3134106Y-7537665D01*
X3134106Y-7537667D01*
X3201985Y-7701544D01*
X3201985Y-7701545D01*
X3300535Y-7849034D01*
X3300536Y-7849035D01*
X3425965Y-7974464D01*
X3573453Y-8073013D01*
X3737334Y-8140894D01*
X3911309Y-8175500D01*
X3911310Y-8175500D01*
X4088690Y-8175500D01*
X4088691Y-8175500D01*
X4262666Y-8140894D01*
X4426547Y-8073013D01*
X4574035Y-7974464D01*
X4699464Y-7849035D01*
X4798013Y-7701547D01*
X4865894Y-7537666D01*
X4900500Y-7363691D01*
X4900500Y-6636309D01*
X4900499Y-6636306D01*
X5099500Y-6636306D01*
X5099500Y-7363693D01*
X5134106Y-7537665D01*
X5134106Y-7537667D01*
X5201985Y-7701544D01*
X5201985Y-7701545D01*
X5300537Y-7849037D01*
X5420503Y-7969002D01*
X5448281Y-8023519D01*
X5449500Y-8039006D01*
X5449500Y-20960993D01*
X5430593Y-21019184D01*
X5420504Y-21030997D01*
X5300535Y-21150965D01*
X5201985Y-21298454D01*
X5201985Y-21298455D01*
X5134106Y-21462332D01*
X5134106Y-21462334D01*
X5099500Y-21636306D01*
X5099500Y-22363693D01*
X5134106Y-22537665D01*
X5134106Y-22537667D01*
X5201985Y-22701544D01*
X5201985Y-22701545D01*
X5300535Y-22849034D01*
X5300536Y-22849035D01*
X5425965Y-22974464D01*
X5573453Y-23073013D01*
X5737334Y-23140894D01*
X5911309Y-23175500D01*
X5911310Y-23175500D01*
X6088690Y-23175500D01*
X6088691Y-23175500D01*
X6262666Y-23140894D01*
X6426547Y-23073013D01*
X6574035Y-22974464D01*
X6699464Y-22849035D01*
X6798013Y-22701547D01*
X6865894Y-22537666D01*
X6900500Y-22363691D01*
X6900500Y-21636309D01*
X6865894Y-21462334D01*
X6824159Y-21361575D01*
X6798014Y-21298455D01*
X6798014Y-21298454D01*
X6699464Y-21150965D01*
X6579496Y-21030997D01*
X6551719Y-20976480D01*
X6550500Y-20960993D01*
X6550500Y-12752130D01*
X18734500Y-12752130D01*
X18734500Y-12880269D01*
X18759499Y-13005942D01*
X18759500Y-13005947D01*
X18808534Y-13124325D01*
X18808538Y-13124333D01*
X18851365Y-13188426D01*
X18879724Y-13230869D01*
X18879727Y-13230872D01*
X18930504Y-13281649D01*
X18958281Y-13336166D01*
X18959500Y-13351653D01*
X18959500Y-16023382D01*
X18959500Y-16135418D01*
X18985072Y-16230855D01*
X18988498Y-16243641D01*
X19018640Y-16295847D01*
X19044515Y-16340663D01*
X19889905Y-17186053D01*
X19917681Y-17240568D01*
X19918900Y-17256055D01*
X19918900Y-17327869D01*
X19931821Y-17392827D01*
X19943899Y-17453542D01*
X19943900Y-17453547D01*
X19992934Y-17571925D01*
X19992938Y-17571933D01*
X20035765Y-17636026D01*
X20064124Y-17678469D01*
X20154731Y-17769076D01*
X20201988Y-17800652D01*
X20261266Y-17840261D01*
X20261270Y-17840263D01*
X20261273Y-17840265D01*
X20379656Y-17889301D01*
X20505331Y-17914300D01*
X20505332Y-17914300D01*
X20633468Y-17914300D01*
X20633469Y-17914300D01*
X20635837Y-17913829D01*
X20671985Y-17906639D01*
X20732746Y-17913829D01*
X20777676Y-17955361D01*
X20790300Y-18003736D01*
X20790300Y-20241198D01*
X20771393Y-20299389D01*
X20746303Y-20323512D01*
X20705132Y-20351022D01*
X20614531Y-20441622D01*
X20614524Y-20441631D01*
X20543338Y-20548166D01*
X20543334Y-20548174D01*
X20494300Y-20666552D01*
X20494299Y-20666555D01*
X20494299Y-20666556D01*
X20469300Y-20792231D01*
X20469300Y-20920369D01*
X20490219Y-21025535D01*
X20494299Y-21046042D01*
X20494300Y-21046047D01*
X20543334Y-21164425D01*
X20543338Y-21164433D01*
X20586165Y-21228526D01*
X20614524Y-21270969D01*
X20705131Y-21361576D01*
X20768648Y-21404017D01*
X20811666Y-21432761D01*
X20811670Y-21432763D01*
X20811673Y-21432765D01*
X20930056Y-21481801D01*
X21055731Y-21506800D01*
X21055732Y-21506800D01*
X21183868Y-21506800D01*
X21183869Y-21506800D01*
X21309544Y-21481801D01*
X21427927Y-21432765D01*
X21534469Y-21361576D01*
X21625076Y-21270969D01*
X21696265Y-21164427D01*
X21745301Y-21046044D01*
X21770300Y-20920369D01*
X21770300Y-20792231D01*
X21745301Y-20666556D01*
X21709391Y-20579861D01*
X21696264Y-20548170D01*
X21657984Y-20490879D01*
X21641300Y-20435879D01*
X21641300Y-19328431D01*
X28770900Y-19328431D01*
X28770900Y-19456569D01*
X28794792Y-19576681D01*
X28795899Y-19582242D01*
X28795900Y-19582247D01*
X28844934Y-19700625D01*
X28844938Y-19700633D01*
X28887765Y-19764726D01*
X28916124Y-19807169D01*
X29006731Y-19897776D01*
X29068921Y-19939330D01*
X29113266Y-19968961D01*
X29113270Y-19968963D01*
X29113273Y-19968965D01*
X29231656Y-20018001D01*
X29357331Y-20043000D01*
X29357332Y-20043000D01*
X29485468Y-20043000D01*
X29485469Y-20043000D01*
X29611144Y-20018001D01*
X29729527Y-19968965D01*
X29773879Y-19939330D01*
X31001200Y-19939330D01*
X31001200Y-20067469D01*
X31026199Y-20193142D01*
X31026200Y-20193147D01*
X31075234Y-20311525D01*
X31075238Y-20311533D01*
X31101626Y-20351024D01*
X31146424Y-20418069D01*
X31237031Y-20508676D01*
X31296132Y-20548166D01*
X31343566Y-20579861D01*
X31343570Y-20579863D01*
X31343573Y-20579865D01*
X31461956Y-20628901D01*
X31587631Y-20653900D01*
X31587632Y-20653900D01*
X31715768Y-20653900D01*
X31715769Y-20653900D01*
X31841444Y-20628901D01*
X31959827Y-20579865D01*
X32066369Y-20508676D01*
X32117149Y-20457896D01*
X32171666Y-20430119D01*
X32187153Y-20428900D01*
X32514616Y-20428900D01*
X32514618Y-20428900D01*
X32622837Y-20399903D01*
X32622839Y-20399901D01*
X32622841Y-20399901D01*
X32651664Y-20383259D01*
X32719863Y-20343885D01*
X34978251Y-18085495D01*
X35032768Y-18057719D01*
X35048255Y-18056500D01*
X35120068Y-18056500D01*
X35120069Y-18056500D01*
X35245744Y-18031501D01*
X35364127Y-17982465D01*
X35470669Y-17911276D01*
X35561276Y-17820669D01*
X35632465Y-17714127D01*
X35681501Y-17595744D01*
X35706500Y-17470069D01*
X35706500Y-17341931D01*
X35681501Y-17216256D01*
X35632465Y-17097873D01*
X35632463Y-17097870D01*
X35632461Y-17097866D01*
X35592761Y-17038452D01*
X35561276Y-16991331D01*
X35470669Y-16900724D01*
X35428226Y-16872365D01*
X35364133Y-16829538D01*
X35364125Y-16829534D01*
X35245747Y-16780500D01*
X35245745Y-16780499D01*
X35245744Y-16780499D01*
X35120069Y-16755500D01*
X34991931Y-16755500D01*
X34991930Y-16755500D01*
X34929093Y-16767999D01*
X34866256Y-16780499D01*
X34866255Y-16780499D01*
X34866252Y-16780500D01*
X34747874Y-16829534D01*
X34747866Y-16829538D01*
X34641331Y-16900724D01*
X34641327Y-16900727D01*
X34550727Y-16991327D01*
X34550724Y-16991331D01*
X34479538Y-17097866D01*
X34479534Y-17097874D01*
X34430500Y-17216252D01*
X34430499Y-17216255D01*
X34430499Y-17216256D01*
X34427559Y-17231035D01*
X34405500Y-17341930D01*
X34405500Y-17413744D01*
X34386593Y-17471935D01*
X34376504Y-17483748D01*
X32311348Y-19548904D01*
X32256831Y-19576681D01*
X32241344Y-19577900D01*
X32187153Y-19577900D01*
X32128962Y-19558993D01*
X32117149Y-19548904D01*
X32066372Y-19498127D01*
X32066369Y-19498124D01*
X32023926Y-19469765D01*
X31959833Y-19426938D01*
X31959825Y-19426934D01*
X31841447Y-19377900D01*
X31841445Y-19377899D01*
X31841444Y-19377899D01*
X31715769Y-19352900D01*
X31587631Y-19352900D01*
X31587630Y-19352900D01*
X31524793Y-19365399D01*
X31461956Y-19377899D01*
X31461955Y-19377899D01*
X31461952Y-19377900D01*
X31343574Y-19426934D01*
X31343566Y-19426938D01*
X31237031Y-19498124D01*
X31237027Y-19498127D01*
X31146427Y-19588727D01*
X31146424Y-19588731D01*
X31075238Y-19695266D01*
X31075234Y-19695274D01*
X31026200Y-19813652D01*
X31026199Y-19813655D01*
X31026199Y-19813656D01*
X31019567Y-19846996D01*
X31001200Y-19939330D01*
X29773879Y-19939330D01*
X29836069Y-19897776D01*
X29886849Y-19846996D01*
X29941366Y-19819219D01*
X29956853Y-19818000D01*
X30428416Y-19818000D01*
X30428418Y-19818000D01*
X30536637Y-19789003D01*
X30536639Y-19789001D01*
X30536641Y-19789001D01*
X30565464Y-19772359D01*
X30633663Y-19732985D01*
X32697451Y-17669195D01*
X32751968Y-17641419D01*
X32767455Y-17640200D01*
X32839268Y-17640200D01*
X32839269Y-17640200D01*
X32964944Y-17615201D01*
X33083327Y-17566165D01*
X33189869Y-17494976D01*
X33280476Y-17404369D01*
X33351665Y-17297827D01*
X33400701Y-17179444D01*
X33425700Y-17053769D01*
X33425700Y-16925631D01*
X33400701Y-16799956D01*
X33351665Y-16681573D01*
X33351663Y-16681570D01*
X33351661Y-16681566D01*
X33306046Y-16613300D01*
X33280476Y-16575031D01*
X33189869Y-16484424D01*
X33147426Y-16456065D01*
X33083333Y-16413238D01*
X33083325Y-16413234D01*
X32964947Y-16364200D01*
X32964945Y-16364199D01*
X32964944Y-16364199D01*
X32839269Y-16339200D01*
X32711131Y-16339200D01*
X32711130Y-16339200D01*
X32648293Y-16351699D01*
X32585456Y-16364199D01*
X32585455Y-16364199D01*
X32585452Y-16364200D01*
X32467074Y-16413234D01*
X32467066Y-16413238D01*
X32360531Y-16484424D01*
X32360527Y-16484427D01*
X32269927Y-16575027D01*
X32269924Y-16575031D01*
X32198738Y-16681566D01*
X32198734Y-16681574D01*
X32149700Y-16799952D01*
X32149699Y-16799955D01*
X32149699Y-16799956D01*
X32143815Y-16829535D01*
X32124700Y-16925630D01*
X32124700Y-16997444D01*
X32105793Y-17055635D01*
X32095704Y-17067448D01*
X30225148Y-18938004D01*
X30170631Y-18965781D01*
X30155144Y-18967000D01*
X29956853Y-18967000D01*
X29898662Y-18948093D01*
X29886849Y-18938004D01*
X29836072Y-18887227D01*
X29836069Y-18887224D01*
X29793626Y-18858865D01*
X29729533Y-18816038D01*
X29729525Y-18816034D01*
X29611147Y-18767000D01*
X29611145Y-18766999D01*
X29611144Y-18766999D01*
X29485469Y-18742000D01*
X29357331Y-18742000D01*
X29357330Y-18742000D01*
X29294493Y-18754499D01*
X29231656Y-18766999D01*
X29231655Y-18766999D01*
X29231652Y-18767000D01*
X29113274Y-18816034D01*
X29113266Y-18816038D01*
X29006731Y-18887224D01*
X29006727Y-18887227D01*
X28916127Y-18977827D01*
X28916124Y-18977831D01*
X28844938Y-19084366D01*
X28844934Y-19084374D01*
X28795900Y-19202752D01*
X28795899Y-19202755D01*
X28795899Y-19202756D01*
X28770900Y-19328431D01*
X21641300Y-19328431D01*
X21641300Y-17743431D01*
X28364600Y-17743431D01*
X28364600Y-17871569D01*
X28386659Y-17982465D01*
X28389599Y-17997242D01*
X28389600Y-17997247D01*
X28438634Y-18115625D01*
X28438638Y-18115633D01*
X28481465Y-18179726D01*
X28509824Y-18222169D01*
X28600431Y-18312776D01*
X28663948Y-18355217D01*
X28706966Y-18383961D01*
X28706970Y-18383963D01*
X28706973Y-18383965D01*
X28825356Y-18433001D01*
X28951031Y-18458000D01*
X28951032Y-18458000D01*
X29079168Y-18458000D01*
X29079169Y-18458000D01*
X29204844Y-18433001D01*
X29323227Y-18383965D01*
X29429769Y-18312776D01*
X29520376Y-18222169D01*
X29591565Y-18115627D01*
X29640601Y-17997244D01*
X29665600Y-17871569D01*
X29665600Y-17870656D01*
X29665728Y-17870259D01*
X29666076Y-17866733D01*
X29666849Y-17866809D01*
X29684507Y-17812465D01*
X29694596Y-17800652D01*
X30709652Y-16785596D01*
X30764169Y-16757819D01*
X30779656Y-16756600D01*
X30851468Y-16756600D01*
X30851469Y-16756600D01*
X30977144Y-16731601D01*
X31095527Y-16682565D01*
X31202069Y-16611376D01*
X31292676Y-16520769D01*
X31363865Y-16414227D01*
X31412901Y-16295844D01*
X31437900Y-16170169D01*
X31437900Y-16104595D01*
X31456807Y-16046404D01*
X31506307Y-16010440D01*
X31567493Y-16010440D01*
X31591900Y-16022279D01*
X31604669Y-16030811D01*
X31616569Y-16038763D01*
X31616571Y-16038764D01*
X31616573Y-16038765D01*
X31734956Y-16087801D01*
X31860631Y-16112800D01*
X31860632Y-16112800D01*
X31988768Y-16112800D01*
X31988769Y-16112800D01*
X32114444Y-16087801D01*
X32232827Y-16038765D01*
X32339369Y-15967576D01*
X32390149Y-15916796D01*
X32444666Y-15889019D01*
X32460153Y-15887800D01*
X33436116Y-15887800D01*
X33436118Y-15887800D01*
X33544337Y-15858803D01*
X33544339Y-15858801D01*
X33544341Y-15858801D01*
X33573164Y-15842159D01*
X33641363Y-15802785D01*
X36028543Y-13415603D01*
X36083060Y-13387827D01*
X36143492Y-13397398D01*
X36168547Y-13415601D01*
X36250499Y-13497553D01*
X36397006Y-13603996D01*
X36558361Y-13686211D01*
X36730591Y-13742171D01*
X36802136Y-13753502D01*
X36909451Y-13770500D01*
X36909454Y-13770500D01*
X37090549Y-13770500D01*
X37179977Y-13756335D01*
X37269409Y-13742171D01*
X37441639Y-13686211D01*
X37602994Y-13603996D01*
X37749501Y-13497553D01*
X37877553Y-13369501D01*
X37983996Y-13222994D01*
X38066211Y-13061639D01*
X38122171Y-12889409D01*
X38136335Y-12799977D01*
X38150500Y-12710549D01*
X38150500Y-12529450D01*
X38122171Y-12350593D01*
X38122171Y-12350591D01*
X38066211Y-12178361D01*
X37983996Y-12017006D01*
X37877553Y-11870499D01*
X37749501Y-11742447D01*
X37602994Y-11636004D01*
X37602993Y-11636003D01*
X37602991Y-11636002D01*
X37441637Y-11553788D01*
X37269406Y-11497828D01*
X37090549Y-11469500D01*
X37090546Y-11469500D01*
X36909454Y-11469500D01*
X36909451Y-11469500D01*
X36730593Y-11497828D01*
X36558362Y-11553788D01*
X36438745Y-11614736D01*
X36378313Y-11624307D01*
X36323796Y-11596529D01*
X36296019Y-11542013D01*
X36294800Y-11526526D01*
X36294800Y-11427954D01*
X36313707Y-11369763D01*
X36323784Y-11357962D01*
X36498237Y-11183509D01*
X36552752Y-11155734D01*
X36598829Y-11159359D01*
X36730591Y-11202171D01*
X36802136Y-11213502D01*
X36909451Y-11230500D01*
X36909454Y-11230500D01*
X37090549Y-11230500D01*
X37179977Y-11216335D01*
X37269409Y-11202171D01*
X37441639Y-11146211D01*
X37602994Y-11063996D01*
X37749501Y-10957553D01*
X37877553Y-10829501D01*
X37983996Y-10682994D01*
X38066211Y-10521639D01*
X38122171Y-10349409D01*
X38150500Y-10170546D01*
X38150500Y-9989454D01*
X38150500Y-9989450D01*
X38122171Y-9810593D01*
X38122171Y-9810591D01*
X38066211Y-9638361D01*
X37983996Y-9477006D01*
X37877553Y-9330499D01*
X37749501Y-9202447D01*
X37602994Y-9096004D01*
X37602993Y-9096003D01*
X37602991Y-9096002D01*
X37441637Y-9013788D01*
X37269406Y-8957828D01*
X37090549Y-8929500D01*
X37090546Y-8929500D01*
X36909454Y-8929500D01*
X36909451Y-8929500D01*
X36730593Y-8957828D01*
X36558362Y-9013788D01*
X36397008Y-9096002D01*
X36323752Y-9149225D01*
X36250499Y-9202447D01*
X36122447Y-9330499D01*
X36069225Y-9403752D01*
X36016002Y-9477008D01*
X35933788Y-9638362D01*
X35877828Y-9810593D01*
X35849500Y-9989450D01*
X35849500Y-10170549D01*
X35877828Y-10349406D01*
X35920639Y-10481167D01*
X35920638Y-10542352D01*
X35896488Y-10581762D01*
X35549804Y-10928447D01*
X35495287Y-10956225D01*
X35434855Y-10946654D01*
X35391590Y-10903389D01*
X35380800Y-10858444D01*
X35380800Y-9801955D01*
X35399707Y-9743764D01*
X35409790Y-9731957D01*
X36498237Y-8643509D01*
X36552752Y-8615734D01*
X36598829Y-8619359D01*
X36730591Y-8662171D01*
X36802136Y-8673502D01*
X36909451Y-8690500D01*
X36909454Y-8690500D01*
X37090549Y-8690500D01*
X37179977Y-8676335D01*
X37269409Y-8662171D01*
X37441639Y-8606211D01*
X37602994Y-8523996D01*
X37749501Y-8417553D01*
X37877553Y-8289501D01*
X37983996Y-8142994D01*
X38066211Y-7981639D01*
X38122171Y-7809409D01*
X38150500Y-7630546D01*
X38150500Y-7449454D01*
X38150500Y-7449450D01*
X38122171Y-7270593D01*
X38122171Y-7270591D01*
X38066211Y-7098361D01*
X37983996Y-6937006D01*
X37877553Y-6790499D01*
X37749501Y-6662447D01*
X37602994Y-6556004D01*
X37602993Y-6556003D01*
X37602991Y-6556002D01*
X37441637Y-6473788D01*
X37269406Y-6417828D01*
X37090549Y-6389500D01*
X37090546Y-6389500D01*
X36909454Y-6389500D01*
X36909451Y-6389500D01*
X36730593Y-6417828D01*
X36558362Y-6473788D01*
X36397008Y-6556002D01*
X36323752Y-6609225D01*
X36250499Y-6662447D01*
X36122447Y-6790499D01*
X36069225Y-6863752D01*
X36016002Y-6937008D01*
X35933788Y-7098362D01*
X35877828Y-7270593D01*
X35849500Y-7449450D01*
X35849500Y-7630549D01*
X35877828Y-7809406D01*
X35920638Y-7941167D01*
X35920637Y-8002353D01*
X35896487Y-8041762D01*
X34614514Y-9323737D01*
X34558498Y-9420758D01*
X34529500Y-9528983D01*
X34529500Y-9645212D01*
X34529800Y-9649787D01*
X34529800Y-12376947D01*
X34510893Y-12435138D01*
X34500804Y-12446951D01*
X34450027Y-12497727D01*
X34450024Y-12497731D01*
X34378838Y-12604266D01*
X34378834Y-12604274D01*
X34329800Y-12722652D01*
X34329799Y-12722655D01*
X34329799Y-12722656D01*
X34304800Y-12848331D01*
X34304800Y-12976469D01*
X34321741Y-13061637D01*
X34329799Y-13102142D01*
X34329800Y-13102147D01*
X34378834Y-13220525D01*
X34378838Y-13220533D01*
X34419675Y-13281649D01*
X34450024Y-13327069D01*
X34540631Y-13417676D01*
X34609582Y-13463747D01*
X34647461Y-13511796D01*
X34649863Y-13572935D01*
X34624584Y-13616066D01*
X33232848Y-15007804D01*
X33178331Y-15035581D01*
X33162844Y-15036800D01*
X32460153Y-15036800D01*
X32401962Y-15017893D01*
X32390149Y-15007804D01*
X32339372Y-14957027D01*
X32339369Y-14957024D01*
X32296926Y-14928665D01*
X32232833Y-14885838D01*
X32232825Y-14885834D01*
X32114447Y-14836800D01*
X32114445Y-14836799D01*
X32114444Y-14836799D01*
X31988769Y-14811800D01*
X31860631Y-14811800D01*
X31860630Y-14811800D01*
X31797793Y-14824299D01*
X31734956Y-14836799D01*
X31734955Y-14836799D01*
X31734952Y-14836800D01*
X31616574Y-14885834D01*
X31616566Y-14885838D01*
X31510031Y-14957024D01*
X31510027Y-14957027D01*
X31419427Y-15047627D01*
X31419424Y-15047631D01*
X31348238Y-15154166D01*
X31348234Y-15154174D01*
X31299200Y-15272552D01*
X31299199Y-15272557D01*
X31274200Y-15398230D01*
X31274200Y-15463804D01*
X31255293Y-15521995D01*
X31205793Y-15557959D01*
X31144607Y-15557959D01*
X31120198Y-15546119D01*
X31095534Y-15529638D01*
X31095525Y-15529634D01*
X30977147Y-15480600D01*
X30977145Y-15480599D01*
X30977144Y-15480599D01*
X30851469Y-15455600D01*
X30723331Y-15455600D01*
X30723330Y-15455600D01*
X30660493Y-15468099D01*
X30597656Y-15480599D01*
X30597655Y-15480599D01*
X30597652Y-15480600D01*
X30479274Y-15529634D01*
X30479266Y-15529638D01*
X30372731Y-15600824D01*
X30372727Y-15600827D01*
X30282127Y-15691427D01*
X30282124Y-15691431D01*
X30210938Y-15797966D01*
X30210934Y-15797974D01*
X30161900Y-15916352D01*
X30161899Y-15916355D01*
X30161899Y-15916356D01*
X30158758Y-15932148D01*
X30136900Y-16042030D01*
X30136900Y-16113843D01*
X30117993Y-16172034D01*
X30107904Y-16183847D01*
X29162875Y-17128875D01*
X29108358Y-17156652D01*
X29083161Y-17157394D01*
X29079174Y-17157001D01*
X29079169Y-17157000D01*
X28951031Y-17157000D01*
X28951030Y-17157000D01*
X28904670Y-17166222D01*
X28825356Y-17181999D01*
X28825355Y-17181999D01*
X28825352Y-17182000D01*
X28706974Y-17231034D01*
X28706966Y-17231038D01*
X28600431Y-17302224D01*
X28600427Y-17302227D01*
X28509827Y-17392827D01*
X28509824Y-17392831D01*
X28438638Y-17499366D01*
X28438634Y-17499374D01*
X28389600Y-17617752D01*
X28389599Y-17617755D01*
X28389599Y-17617756D01*
X28364600Y-17743431D01*
X21641300Y-17743431D01*
X21641300Y-14512683D01*
X21641300Y-14512682D01*
X21612303Y-14404463D01*
X21612301Y-14404460D01*
X21612301Y-14404458D01*
X21556285Y-14307437D01*
X21490696Y-14241847D01*
X21462919Y-14187330D01*
X21461700Y-14171844D01*
X21461700Y-14100032D01*
X21461700Y-14100031D01*
X21436701Y-13974356D01*
X21387665Y-13855973D01*
X21387663Y-13855970D01*
X21387661Y-13855966D01*
X21358917Y-13812948D01*
X21316476Y-13749431D01*
X21225869Y-13658824D01*
X21183426Y-13630465D01*
X21119333Y-13587638D01*
X21119325Y-13587634D01*
X21000947Y-13538600D01*
X21000945Y-13538599D01*
X21000944Y-13538599D01*
X20875269Y-13513600D01*
X20747131Y-13513600D01*
X20747130Y-13513600D01*
X20717445Y-13519505D01*
X20621456Y-13538599D01*
X20621455Y-13538599D01*
X20621452Y-13538600D01*
X20503074Y-13587634D01*
X20503066Y-13587638D01*
X20396531Y-13658824D01*
X20396527Y-13658827D01*
X20305927Y-13749427D01*
X20305924Y-13749431D01*
X20234738Y-13855966D01*
X20234734Y-13855974D01*
X20185700Y-13974352D01*
X20185699Y-13974357D01*
X20160700Y-14100030D01*
X20160700Y-14228169D01*
X20185699Y-14353842D01*
X20185700Y-14353847D01*
X20234734Y-14472225D01*
X20234738Y-14472233D01*
X20277565Y-14536326D01*
X20305924Y-14578769D01*
X20396531Y-14669376D01*
X20460048Y-14711817D01*
X20503066Y-14740561D01*
X20503070Y-14740563D01*
X20503073Y-14740565D01*
X20621456Y-14789601D01*
X20710614Y-14807336D01*
X20763998Y-14837233D01*
X20789614Y-14892798D01*
X20790300Y-14904434D01*
X20790300Y-16523863D01*
X20771393Y-16582054D01*
X20721893Y-16618018D01*
X20671987Y-16620961D01*
X20633474Y-16613300D01*
X20633469Y-16613300D01*
X20561656Y-16613300D01*
X20503465Y-16594393D01*
X20491652Y-16584304D01*
X19839496Y-15932148D01*
X19811719Y-15877631D01*
X19810500Y-15862144D01*
X19810500Y-13351653D01*
X19829407Y-13293462D01*
X19839496Y-13281649D01*
X19890276Y-13230869D01*
X19961465Y-13124327D01*
X20010501Y-13005944D01*
X20035500Y-12880269D01*
X20035500Y-12752131D01*
X20010501Y-12626456D01*
X19961465Y-12508073D01*
X19961463Y-12508070D01*
X19961461Y-12508066D01*
X19932717Y-12465048D01*
X19890276Y-12401531D01*
X19799669Y-12310924D01*
X19757226Y-12282565D01*
X19693133Y-12239738D01*
X19693125Y-12239734D01*
X19574747Y-12190700D01*
X19574745Y-12190699D01*
X19574744Y-12190699D01*
X19449069Y-12165700D01*
X19320931Y-12165700D01*
X19320930Y-12165700D01*
X19258093Y-12178199D01*
X19195256Y-12190699D01*
X19195255Y-12190699D01*
X19195252Y-12190700D01*
X19076874Y-12239734D01*
X19076866Y-12239738D01*
X18970331Y-12310924D01*
X18970327Y-12310927D01*
X18879727Y-12401527D01*
X18879724Y-12401531D01*
X18808538Y-12508066D01*
X18808534Y-12508074D01*
X18759500Y-12626452D01*
X18759499Y-12626457D01*
X18734500Y-12752130D01*
X6550500Y-12752130D01*
X6550500Y-8039006D01*
X6569407Y-7980815D01*
X6579497Y-7969002D01*
X6699462Y-7849037D01*
X6699464Y-7849035D01*
X6798013Y-7701547D01*
X6865894Y-7537666D01*
X6900500Y-7363691D01*
X6900500Y-6636309D01*
X6865894Y-6462334D01*
X6798014Y-6298455D01*
X6798014Y-6298454D01*
X6699464Y-6150965D01*
X6574034Y-6025535D01*
X6426544Y-5926985D01*
X6262666Y-5859106D01*
X6088693Y-5824500D01*
X6088691Y-5824500D01*
X5911309Y-5824500D01*
X5911306Y-5824500D01*
X5737334Y-5859106D01*
X5737332Y-5859106D01*
X5573455Y-5926985D01*
X5573454Y-5926985D01*
X5425965Y-6025535D01*
X5300535Y-6150965D01*
X5201985Y-6298454D01*
X5201985Y-6298455D01*
X5134106Y-6462332D01*
X5134106Y-6462334D01*
X5099500Y-6636306D01*
X4900499Y-6636306D01*
X4865894Y-6462334D01*
X4798014Y-6298455D01*
X4798014Y-6298454D01*
X4699464Y-6150965D01*
X4574034Y-6025535D01*
X4426544Y-5926985D01*
X4262666Y-5859106D01*
X4088693Y-5824500D01*
X4088691Y-5824500D01*
X3911309Y-5824500D01*
X3911306Y-5824500D01*
X3737334Y-5859106D01*
X3737332Y-5859106D01*
X3573455Y-5926985D01*
X3573454Y-5926985D01*
X3425965Y-6025535D01*
X3300535Y-6150965D01*
X3201985Y-6298454D01*
X3201985Y-6298455D01*
X3134106Y-6462332D01*
X3134106Y-6462334D01*
X3099500Y-6636306D01*
X500500Y-6636306D01*
X500500Y-2393709D01*
X1149500Y-2393709D01*
X1149500Y-2606290D01*
X1182752Y-2816238D01*
X1248443Y-3018412D01*
X1344948Y-3207815D01*
X1344950Y-3207819D01*
X1469891Y-3379786D01*
X1469893Y-3379788D01*
X1469896Y-3379792D01*
X1620208Y-3530104D01*
X1620211Y-3530106D01*
X1620213Y-3530108D01*
X1792180Y-3655049D01*
X1792184Y-3655051D01*
X1981588Y-3751557D01*
X2183757Y-3817246D01*
X2183758Y-3817246D01*
X2183761Y-3817247D01*
X2393710Y-3850500D01*
X2393713Y-3850500D01*
X2606290Y-3850500D01*
X2816238Y-3817247D01*
X2816239Y-3817246D01*
X2816243Y-3817246D01*
X3018412Y-3751557D01*
X3207816Y-3655051D01*
X3379792Y-3530104D01*
X3530104Y-3379792D01*
X3655051Y-3207816D01*
X3751557Y-3018412D01*
X3817246Y-2816243D01*
X3850500Y-2606287D01*
X3850500Y-2393713D01*
X3850500Y-2393709D01*
X36149500Y-2393709D01*
X36149500Y-2606290D01*
X36182752Y-2816238D01*
X36248443Y-3018412D01*
X36344948Y-3207815D01*
X36344950Y-3207819D01*
X36469891Y-3379786D01*
X36469893Y-3379788D01*
X36469896Y-3379792D01*
X36620208Y-3530104D01*
X36620211Y-3530106D01*
X36620213Y-3530108D01*
X36792180Y-3655049D01*
X36792184Y-3655051D01*
X36981588Y-3751557D01*
X37183757Y-3817246D01*
X37183758Y-3817246D01*
X37183761Y-3817247D01*
X37393710Y-3850500D01*
X37393713Y-3850500D01*
X37606290Y-3850500D01*
X37816238Y-3817247D01*
X37816239Y-3817246D01*
X37816243Y-3817246D01*
X38018412Y-3751557D01*
X38207816Y-3655051D01*
X38379792Y-3530104D01*
X38530104Y-3379792D01*
X38655051Y-3207816D01*
X38751557Y-3018412D01*
X38817246Y-2816243D01*
X38850500Y-2606287D01*
X38850500Y-2393713D01*
X38850500Y-2393709D01*
X38817247Y-2183761D01*
X38817246Y-2183757D01*
X38751557Y-1981588D01*
X38655051Y-1792184D01*
X38655049Y-1792180D01*
X38530108Y-1620213D01*
X38530106Y-1620211D01*
X38530104Y-1620208D01*
X38379792Y-1469896D01*
X38379788Y-1469893D01*
X38379786Y-1469891D01*
X38207819Y-1344950D01*
X38207815Y-1344948D01*
X38018412Y-1248443D01*
X37816238Y-1182752D01*
X37606290Y-1149500D01*
X37606287Y-1149500D01*
X37393713Y-1149500D01*
X37393710Y-1149500D01*
X37183761Y-1182752D01*
X36981587Y-1248443D01*
X36792184Y-1344948D01*
X36792180Y-1344950D01*
X36620213Y-1469891D01*
X36469891Y-1620213D01*
X36344950Y-1792180D01*
X36344948Y-1792184D01*
X36248443Y-1981587D01*
X36182752Y-2183761D01*
X36149500Y-2393709D01*
X3850500Y-2393709D01*
X3817247Y-2183761D01*
X3817246Y-2183757D01*
X3751557Y-1981588D01*
X3655051Y-1792184D01*
X3655049Y-1792180D01*
X3530108Y-1620213D01*
X3530106Y-1620211D01*
X3530104Y-1620208D01*
X3379792Y-1469896D01*
X3379788Y-1469893D01*
X3379786Y-1469891D01*
X3207819Y-1344950D01*
X3207815Y-1344948D01*
X3018412Y-1248443D01*
X2816238Y-1182752D01*
X2606290Y-1149500D01*
X2606287Y-1149500D01*
X2393713Y-1149500D01*
X2393710Y-1149500D01*
X2183761Y-1182752D01*
X1981587Y-1248443D01*
X1792184Y-1344948D01*
X1792180Y-1344950D01*
X1620213Y-1469891D01*
X1469891Y-1620213D01*
X1344950Y-1792180D01*
X1344948Y-1792184D01*
X1248443Y-1981587D01*
X1182752Y-2183761D01*
X1149500Y-2393709D01*
X500500Y-2393709D01*
X500500Y-599500D01*
X519407Y-541309D01*
X568907Y-505345D01*
X599500Y-500500D01*
X39400500Y-500500D01*
X39458691Y-519407D01*
G37*
%TD.AperFunction*%
%TD*%
M02*
