M48
; DRILL file KiCad 10.0.6 date 2026-09-03T10:13:09
; FORMAT={-:-/ absolute / metric / decimal}
; #@! TF.CreationDate,2026-09-03T10:13:09+08:00
; #@! TF.GenerationSoftware,Kicad,Pcbnew,10.0.6
; #@! TF.FileFunction,MixedPlating,1,2
FMAT,2
METRIC
; #@! TA.AperFunction,Plated,PTH,ViaDrill
T1C0.350
; #@! TA.AperFunction,Plated,PTH,ComponentDrill
T2C0.750
; #@! TA.AperFunction,Plated,PTH,ComponentDrill
T3C1.000
; #@! TA.AperFunction,NonPlated,NPTH,ComponentDrill
T4C2.200
%
G90
G05
T1
X19.385Y-12.816
X20.569Y-17.264
X20.811Y-14.164
X21.12Y-20.856
X29.015Y-17.807
X29.421Y-19.392
X30.787Y-16.106
X31.652Y-20.003
X31.925Y-15.462
X32.775Y-16.99
X34.955Y-12.912
X35.056Y-17.406
T2
X2.0Y-7.0
X2.0Y-22.0
X4.0Y-7.0
X4.0Y-22.0
X6.0Y-7.0
X6.0Y-22.0
T3
X37.0Y-5.0
X37.0Y-7.54
X37.0Y-10.08
X37.0Y-12.62
T4
X2.5Y-2.5
X2.5Y-27.5
X37.5Y-2.5
X37.5Y-27.5
M30
